<svg width="21" height="24" viewBox="0 0 21 24" fill="none" xmlns="http://www.w3.org/2000/svg">
<path d="M20.125 4.1625H16.625V1.85C16.625 0.829609 15.8402 0 14.875 0H6.125C5.15977 0 4.375 0.829609 4.375 1.85V4.1625H0.875C0.391016 4.1625 0 4.57586 0 5.0875V6.0125C0 6.13969 0.0984375 6.24375 0.21875 6.24375H1.87031L2.5457 21.3617C2.58945 22.3474 3.36055 23.125 4.29297 23.125H16.707C17.6422 23.125 18.4105 22.3503 18.4543 21.3617L19.1297 6.24375H20.7812C20.9016 6.24375 21 6.13969 21 6.0125V5.0875C21 4.57586 20.609 4.1625 20.125 4.1625ZM14.6562 4.1625H6.34375V2.08125H14.6562V4.1625Z" fill="#B88E2F"/>
</svg>
