<svg width="266" height="21" viewBox="0 0 266 21" fill="none" xmlns="http://www.w3.org/2000/svg">
<path d="M2.38419e-07 9.91994C2.38419e-07 8.78661 0.226667 7.79327 0.68 6.93994C1.14667 6.07327 1.78667 5.40661 2.6 4.93994C3.41333 4.47327 4.34667 4.23994 5.4 4.23994C6.73333 4.23994 7.83333 4.55994 8.7 5.19994C9.58 5.82661 10.1733 6.72661 10.48 7.89994H8.02C7.82 7.35327 7.5 6.92661 7.06 6.61994C6.62 6.31327 6.06667 6.15994 5.4 6.15994C4.46667 6.15994 3.72 6.49327 3.16 7.15994C2.61333 7.81327 2.34 8.73327 2.34 9.91994C2.34 11.1066 2.61333 12.0333 3.16 12.6999C3.72 13.3666 4.46667 13.6999 5.4 13.6999C6.72 13.6999 7.59333 13.1199 8.02 11.9599H10.48C10.16 13.0799 9.56 13.9733 8.68 14.6399C7.8 15.2933 6.70667 15.6199 5.4 15.6199C4.34667 15.6199 3.41333 15.3866 2.6 14.9199C1.78667 14.4399 1.14667 13.7733 0.68 12.9199C0.226667 12.0533 2.38419e-07 11.0533 2.38419e-07 9.91994ZM15.0322 6.01994C15.3655 5.45994 15.8055 5.02661 16.3522 4.71994C16.9122 4.39994 17.5722 4.23994 18.3322 4.23994V6.59994H17.7522C16.8589 6.59994 16.1789 6.82661 15.7122 7.27994C15.2589 7.73327 15.0322 8.51994 15.0322 9.63994V15.4399H12.7522V4.41994H15.0322V6.01994ZM19.668 9.87994C19.668 8.77327 19.8946 7.79327 20.348 6.93994C20.8146 6.08661 21.4413 5.42661 22.228 4.95994C23.028 4.47994 23.908 4.23994 24.868 4.23994C25.7346 4.23994 26.488 4.41327 27.128 4.75994C27.7813 5.09327 28.3013 5.51327 28.688 6.01994V4.41994H30.988V15.4399H28.688V13.7999C28.3013 14.3199 27.7746 14.7533 27.108 15.0999C26.4413 15.4466 25.6813 15.6199 24.828 15.6199C23.8813 15.6199 23.0146 15.3799 22.228 14.8999C21.4413 14.4066 20.8146 13.7266 20.348 12.8599C19.8946 11.9799 19.668 10.9866 19.668 9.87994ZM28.688 9.91994C28.688 9.15994 28.528 8.49994 28.208 7.93994C27.9013 7.37994 27.4946 6.95327 26.988 6.65994C26.4813 6.36661 25.9346 6.21994 25.348 6.21994C24.7613 6.21994 24.2146 6.36661 23.708 6.65994C23.2013 6.93994 22.788 7.35994 22.468 7.91994C22.1613 8.46661 22.008 9.11994 22.008 9.87994C22.008 10.6399 22.1613 11.3066 22.468 11.8799C22.788 12.4533 23.2013 12.8933 23.708 13.1999C24.228 13.4933 24.7746 13.6399 25.348 13.6399C25.9346 13.6399 26.4813 13.4933 26.988 13.1999C27.4946 12.9066 27.9013 12.4799 28.208 11.9199C28.528 11.3466 28.688 10.6799 28.688 9.91994ZM38.6027 6.27994H36.5627V15.4399H34.2627V6.27994H32.9627V4.41994H34.2627V3.63994C34.2627 2.37327 34.596 1.45327 35.2627 0.879941C35.9427 0.293274 37.0027 -5.88894e-05 38.4427 -5.88894e-05V1.89994C37.7493 1.89994 37.2627 2.03327 36.9827 2.29994C36.7027 2.55327 36.5627 2.99994 36.5627 3.63994V4.41994H38.6027V6.27994ZM43.2833 6.27994V12.3799C43.2833 12.7933 43.3766 13.0933 43.5633 13.2799C43.7633 13.4533 44.0966 13.5399 44.5633 13.5399H45.9633V15.4399H44.1633C43.1366 15.4399 42.3499 15.1999 41.8033 14.7199C41.2566 14.2399 40.9833 13.4599 40.9833 12.3799V6.27994H39.6833V4.41994H40.9833V1.67994H43.2833V4.41994H45.9633V6.27994H43.2833ZM58.1647 9.65994C58.1647 10.0733 58.138 10.4466 58.0847 10.7799H49.6647C49.7314 11.6599 50.058 12.3666 50.6447 12.8999C51.2314 13.4333 51.9514 13.6999 52.8047 13.6999C54.0314 13.6999 54.898 13.1866 55.4047 12.1599H57.8647C57.5314 13.1733 56.9247 14.0066 56.0447 14.6599C55.178 15.2999 54.098 15.6199 52.8047 15.6199C51.7514 15.6199 50.8047 15.3866 49.9647 14.9199C49.138 14.4399 48.4847 13.7733 48.0047 12.9199C47.538 12.0533 47.3047 11.0533 47.3047 9.91994C47.3047 8.78661 47.5314 7.79327 47.9847 6.93994C48.4514 6.07327 49.098 5.40661 49.9247 4.93994C50.7647 4.47327 51.7247 4.23994 52.8047 4.23994C53.8447 4.23994 54.7714 4.46661 55.5847 4.91994C56.398 5.37327 57.0314 6.01327 57.4847 6.83994C57.938 7.65327 58.1647 8.59327 58.1647 9.65994ZM55.7847 8.93994C55.7714 8.09994 55.4714 7.42661 54.8847 6.91994C54.298 6.41327 53.5714 6.15994 52.7047 6.15994C51.918 6.15994 51.2447 6.41327 50.6847 6.91994C50.1247 7.41327 49.7914 8.08661 49.6847 8.93994H55.7847ZM59.6484 9.87994C59.6484 8.77327 59.8751 7.79327 60.3284 6.93994C60.7951 6.08661 61.4218 5.42661 62.2084 4.95994C63.0084 4.47994 63.8951 4.23994 64.8684 4.23994C65.5884 4.23994 66.2951 4.39994 66.9884 4.71994C67.6951 5.02661 68.2551 5.43994 68.6684 5.95994V0.639941H70.9684V15.4399H68.6684V13.7799C68.2951 14.3133 67.7751 14.7533 67.1084 15.0999C66.4551 15.4466 65.7018 15.6199 64.8484 15.6199C63.8884 15.6199 63.0084 15.3799 62.2084 14.8999C61.4218 14.4066 60.7951 13.7266 60.3284 12.8599C59.8751 11.9799 59.6484 10.9866 59.6484 9.87994ZM68.6684 9.91994C68.6684 9.15994 68.5084 8.49994 68.1884 7.93994C67.8818 7.37994 67.4751 6.95327 66.9684 6.65994C66.4618 6.36661 65.9151 6.21994 65.3284 6.21994C64.7418 6.21994 64.1951 6.36661 63.6884 6.65994C63.1818 6.93994 62.7684 7.35994 62.4484 7.91994C62.1418 8.46661 61.9884 9.11994 61.9884 9.87994C61.9884 10.6399 62.1418 11.3066 62.4484 11.8799C62.7684 12.4533 63.1818 12.8933 63.6884 13.1999C64.2084 13.4933 64.7551 13.6399 65.3284 13.6399C65.9151 13.6399 66.4618 13.4933 66.9684 13.1999C67.4751 12.9066 67.8818 12.4799 68.1884 11.9199C68.5084 11.3466 68.6684 10.6799 68.6684 9.91994ZM83.7784 6.27994H81.7384V15.4399H79.4384V6.27994H78.1384V4.41994H79.4384V3.63994C79.4384 2.37327 79.7718 1.45327 80.4384 0.879941C81.1184 0.293274 82.1784 -5.88894e-05 83.6184 -5.88894e-05V1.89994C82.9251 1.89994 82.4384 2.03327 82.1584 2.29994C81.8784 2.55327 81.7384 2.99994 81.7384 3.63994V4.41994H83.7784V6.27994ZM88.0791 6.01994C88.4124 5.45994 88.8524 5.02661 89.3991 4.71994C89.9591 4.39994 90.6191 4.23994 91.3791 4.23994V6.59994H90.7991C89.9057 6.59994 89.2257 6.82661 88.7591 7.27994C88.3057 7.73327 88.0791 8.51994 88.0791 9.63994V15.4399H85.7991V4.41994H88.0791V6.01994ZM98.2548 15.6199C97.2148 15.6199 96.2748 15.3866 95.4348 14.9199C94.5948 14.4399 93.9348 13.7733 93.4548 12.9199C92.9748 12.0533 92.7348 11.0533 92.7348 9.91994C92.7348 8.79994 92.9815 7.80661 93.4748 6.93994C93.9682 6.07327 94.6415 5.40661 95.4948 4.93994C96.3482 4.47327 97.3015 4.23994 98.3548 4.23994C99.4082 4.23994 100.362 4.47327 101.215 4.93994C102.068 5.40661 102.742 6.07327 103.235 6.93994C103.728 7.80661 103.975 8.79994 103.975 9.91994C103.975 11.0399 103.722 12.0333 103.215 12.8999C102.708 13.7666 102.015 14.4399 101.135 14.9199C100.268 15.3866 99.3082 15.6199 98.2548 15.6199ZM98.2548 13.6399C98.8415 13.6399 99.3882 13.4999 99.8948 13.2199C100.415 12.9399 100.835 12.5199 101.155 11.9599C101.475 11.3999 101.635 10.7199 101.635 9.91994C101.635 9.11994 101.482 8.44661 101.175 7.89994C100.868 7.33994 100.462 6.91994 99.9548 6.63994C99.4482 6.35994 98.9015 6.21994 98.3148 6.21994C97.7282 6.21994 97.1815 6.35994 96.6748 6.63994C96.1815 6.91994 95.7882 7.33994 95.4948 7.89994C95.2015 8.44661 95.0548 9.11994 95.0548 9.91994C95.0548 11.1066 95.3548 12.0266 95.9548 12.6799C96.5682 13.3199 97.3348 13.6399 98.2548 13.6399ZM119.569 4.23994C120.435 4.23994 121.209 4.41994 121.889 4.77994C122.582 5.13994 123.122 5.67327 123.509 6.37994C123.909 7.08661 124.109 7.93994 124.109 8.93994V15.4399H121.849V9.27994C121.849 8.29327 121.602 7.53994 121.109 7.01994C120.615 6.48661 119.942 6.21994 119.089 6.21994C118.235 6.21994 117.555 6.48661 117.049 7.01994C116.555 7.53994 116.309 8.29327 116.309 9.27994V15.4399H114.049V9.27994C114.049 8.29327 113.802 7.53994 113.309 7.01994C112.815 6.48661 112.142 6.21994 111.289 6.21994C110.435 6.21994 109.755 6.48661 109.249 7.01994C108.755 7.53994 108.509 8.29327 108.509 9.27994V15.4399H106.229V4.41994H108.509V5.67994C108.882 5.22661 109.355 4.87327 109.929 4.61994C110.502 4.36661 111.115 4.23994 111.769 4.23994C112.649 4.23994 113.435 4.42661 114.129 4.79994C114.822 5.17327 115.355 5.71327 115.729 6.41994C116.062 5.75327 116.582 5.22661 117.289 4.83994C117.995 4.43994 118.755 4.23994 119.569 4.23994ZM134.865 6.27994V12.3799C134.865 12.7933 134.959 13.0933 135.145 13.2799C135.345 13.4533 135.679 13.5399 136.145 13.5399H137.545V15.4399H135.745C134.719 15.4399 133.932 15.1999 133.385 14.7199C132.839 14.2399 132.565 13.4599 132.565 12.3799V6.27994H131.265V4.41994H132.565V1.67994H134.865V4.41994H137.545V6.27994H134.865ZM144.427 15.6199C143.387 15.6199 142.447 15.3866 141.607 14.9199C140.767 14.4399 140.107 13.7733 139.627 12.9199C139.147 12.0533 138.907 11.0533 138.907 9.91994C138.907 8.79994 139.153 7.80661 139.647 6.93994C140.14 6.07327 140.813 5.40661 141.667 4.93994C142.52 4.47327 143.473 4.23994 144.527 4.23994C145.58 4.23994 146.533 4.47327 147.387 4.93994C148.24 5.40661 148.913 6.07327 149.407 6.93994C149.9 7.80661 150.147 8.79994 150.147 9.91994C150.147 11.0399 149.893 12.0333 149.387 12.8999C148.88 13.7666 148.187 14.4399 147.307 14.9199C146.44 15.3866 145.48 15.6199 144.427 15.6199ZM144.427 13.6399C145.013 13.6399 145.56 13.4999 146.067 13.2199C146.587 12.9399 147.007 12.5199 147.327 11.9599C147.647 11.3999 147.807 10.7199 147.807 9.91994C147.807 9.11994 147.653 8.44661 147.347 7.89994C147.04 7.33994 146.633 6.91994 146.127 6.63994C145.62 6.35994 145.073 6.21994 144.487 6.21994C143.9 6.21994 143.353 6.35994 142.847 6.63994C142.353 6.91994 141.96 7.33994 141.667 7.89994C141.373 8.44661 141.227 9.11994 141.227 9.91994C141.227 11.1066 141.527 12.0266 142.127 12.6799C142.74 13.3199 143.507 13.6399 144.427 13.6399ZM154.681 6.03994C155.067 5.53327 155.594 5.10661 156.261 4.75994C156.927 4.41327 157.681 4.23994 158.521 4.23994C159.481 4.23994 160.354 4.47994 161.141 4.95994C161.941 5.42661 162.567 6.08661 163.021 6.93994C163.474 7.79327 163.701 8.77327 163.701 9.87994C163.701 10.9866 163.474 11.9799 163.021 12.8599C162.567 13.7266 161.941 14.4066 161.141 14.8999C160.354 15.3799 159.481 15.6199 158.521 15.6199C157.681 15.6199 156.934 15.4533 156.281 15.1199C155.627 14.7733 155.094 14.3466 154.681 13.8399V20.6799H152.401V4.41994H154.681V6.03994ZM161.381 9.87994C161.381 9.11994 161.221 8.46661 160.901 7.91994C160.594 7.35994 160.181 6.93994 159.661 6.65994C159.154 6.36661 158.607 6.21994 158.021 6.21994C157.447 6.21994 156.901 6.36661 156.381 6.65994C155.874 6.95327 155.461 7.37994 155.141 7.93994C154.834 8.49994 154.681 9.15994 154.681 9.91994C154.681 10.6799 154.834 11.3466 155.141 11.9199C155.461 12.4799 155.874 12.9066 156.381 13.1999C156.901 13.4933 157.447 13.6399 158.021 13.6399C158.607 13.6399 159.154 13.4933 159.661 13.1999C160.181 12.8933 160.594 12.4533 160.901 11.8799C161.221 11.3066 161.381 10.6399 161.381 9.87994ZM184.491 4.23994C185.357 4.23994 186.131 4.41994 186.811 4.77994C187.504 5.13994 188.044 5.67327 188.431 6.37994C188.831 7.08661 189.031 7.93994 189.031 8.93994V15.4399H186.771V9.27994C186.771 8.29327 186.524 7.53994 186.031 7.01994C185.537 6.48661 184.864 6.21994 184.011 6.21994C183.157 6.21994 182.477 6.48661 181.971 7.01994C181.477 7.53994 181.231 8.29327 181.231 9.27994V15.4399H178.971V9.27994C178.971 8.29327 178.724 7.53994 178.231 7.01994C177.737 6.48661 177.064 6.21994 176.211 6.21994C175.357 6.21994 174.677 6.48661 174.171 7.01994C173.677 7.53994 173.431 8.29327 173.431 9.27994V15.4399H171.151V4.41994H173.431V5.67994C173.804 5.22661 174.277 4.87327 174.851 4.61994C175.424 4.36661 176.037 4.23994 176.691 4.23994C177.571 4.23994 178.357 4.42661 179.051 4.79994C179.744 5.17327 180.277 5.71327 180.651 6.41994C180.984 5.75327 181.504 5.22661 182.211 4.83994C182.917 4.43994 183.677 4.23994 184.491 4.23994ZM191.172 9.87994C191.172 8.77327 191.399 7.79327 191.852 6.93994C192.319 6.08661 192.945 5.42661 193.732 4.95994C194.532 4.47994 195.412 4.23994 196.372 4.23994C197.239 4.23994 197.992 4.41327 198.632 4.75994C199.285 5.09327 199.805 5.51327 200.192 6.01994V4.41994H202.492V15.4399H200.192V13.7999C199.805 14.3199 199.279 14.7533 198.612 15.0999C197.945 15.4466 197.185 15.6199 196.332 15.6199C195.385 15.6199 194.519 15.3799 193.732 14.8999C192.945 14.4066 192.319 13.7266 191.852 12.8599C191.399 11.9799 191.172 10.9866 191.172 9.87994ZM200.192 9.91994C200.192 9.15994 200.032 8.49994 199.712 7.93994C199.405 7.37994 198.999 6.95327 198.492 6.65994C197.985 6.36661 197.439 6.21994 196.852 6.21994C196.265 6.21994 195.719 6.36661 195.212 6.65994C194.705 6.93994 194.292 7.35994 193.972 7.91994C193.665 8.46661 193.512 9.11994 193.512 9.87994C193.512 10.6399 193.665 11.3066 193.972 11.8799C194.292 12.4533 194.705 12.8933 195.212 13.1999C195.732 13.4933 196.279 13.6399 196.852 13.6399C197.439 13.6399 197.985 13.4933 198.492 13.1999C198.999 12.9066 199.405 12.4799 199.712 11.9199C200.032 11.3466 200.192 10.6799 200.192 9.91994ZM208.147 6.27994V12.3799C208.147 12.7933 208.24 13.0933 208.427 13.2799C208.627 13.4533 208.96 13.5399 209.427 13.5399H210.827V15.4399H209.027C208 15.4399 207.213 15.1999 206.667 14.7199C206.12 14.2399 205.847 13.4599 205.847 12.3799V6.27994H204.547V4.41994H205.847V1.67994H208.147V4.41994H210.827V6.27994H208.147ZM223.028 9.65994C223.028 10.0733 223.001 10.4466 222.948 10.7799H214.528C214.595 11.6599 214.921 12.3666 215.508 12.8999C216.095 13.4333 216.815 13.6999 217.668 13.6999C218.895 13.6999 219.761 13.1866 220.268 12.1599H222.728C222.395 13.1733 221.788 14.0066 220.908 14.6599C220.041 15.2999 218.961 15.6199 217.668 15.6199C216.615 15.6199 215.668 15.3866 214.828 14.9199C214.001 14.4399 213.348 13.7733 212.868 12.9199C212.401 12.0533 212.168 11.0533 212.168 9.91994C212.168 8.78661 212.395 7.79327 212.848 6.93994C213.315 6.07327 213.961 5.40661 214.788 4.93994C215.628 4.47327 216.588 4.23994 217.668 4.23994C218.708 4.23994 219.635 4.46661 220.448 4.91994C221.261 5.37327 221.895 6.01327 222.348 6.83994C222.801 7.65327 223.028 8.59327 223.028 9.65994ZM220.648 8.93994C220.635 8.09994 220.335 7.42661 219.748 6.91994C219.161 6.41327 218.435 6.15994 217.568 6.15994C216.781 6.15994 216.108 6.41327 215.548 6.91994C214.988 7.41327 214.655 8.08661 214.548 8.93994H220.648ZM227.552 6.01994C227.885 5.45994 228.325 5.02661 228.872 4.71994C229.432 4.39994 230.092 4.23994 230.852 4.23994V6.59994H230.272C229.378 6.59994 228.698 6.82661 228.232 7.27994C227.778 7.73327 227.552 8.51994 227.552 9.63994V15.4399H225.272V4.41994H227.552V6.01994ZM234.108 2.95994C233.694 2.95994 233.348 2.81994 233.068 2.53994C232.788 2.25994 232.648 1.91327 232.648 1.49994C232.648 1.08661 232.788 0.739941 233.068 0.459941C233.348 0.179941 233.694 0.0399406 234.108 0.0399406C234.508 0.0399406 234.848 0.179941 235.128 0.459941C235.408 0.739941 235.548 1.08661 235.548 1.49994C235.548 1.91327 235.408 2.25994 235.128 2.53994C234.848 2.81994 234.508 2.95994 234.108 2.95994ZM235.228 4.41994V15.4399H232.948V4.41994H235.228ZM237.461 9.87994C237.461 8.77327 237.688 7.79327 238.141 6.93994C238.608 6.08661 239.234 5.42661 240.021 4.95994C240.821 4.47994 241.701 4.23994 242.661 4.23994C243.528 4.23994 244.281 4.41327 244.921 4.75994C245.574 5.09327 246.094 5.51327 246.481 6.01994V4.41994H248.781V15.4399H246.481V13.7999C246.094 14.3199 245.568 14.7533 244.901 15.0999C244.234 15.4466 243.474 15.6199 242.621 15.6199C241.674 15.6199 240.808 15.3799 240.021 14.8999C239.234 14.4066 238.608 13.7266 238.141 12.8599C237.688 11.9799 237.461 10.9866 237.461 9.87994ZM246.481 9.91994C246.481 9.15994 246.321 8.49994 246.001 7.93994C245.694 7.37994 245.288 6.95327 244.781 6.65994C244.274 6.36661 243.728 6.21994 243.141 6.21994C242.554 6.21994 242.008 6.36661 241.501 6.65994C240.994 6.93994 240.581 7.35994 240.261 7.91994C239.954 8.46661 239.801 9.11994 239.801 9.87994C239.801 10.6399 239.954 11.3066 240.261 11.8799C240.581 12.4533 240.994 12.8933 241.501 13.1999C242.021 13.4933 242.568 13.6399 243.141 13.6399C243.728 13.6399 244.274 13.4933 244.781 13.1999C245.288 12.9066 245.694 12.4799 246.001 11.9199C246.321 11.3466 246.481 10.6799 246.481 9.91994ZM254.056 0.639941V15.4399H251.776V0.639941H254.056ZM261.049 15.6199C260.182 15.6199 259.402 15.4666 258.709 15.1599C258.029 14.8399 257.489 14.4133 257.089 13.8799C256.689 13.3333 256.476 12.7266 256.449 12.0599H258.809C258.849 12.5266 259.069 12.9199 259.469 13.2399C259.882 13.5466 260.396 13.6999 261.009 13.6999C261.649 13.6999 262.142 13.5799 262.489 13.3399C262.849 13.0866 263.029 12.7666 263.029 12.3799C263.029 11.9666 262.829 11.6599 262.429 11.4599C262.042 11.2599 261.422 11.0399 260.569 10.7999C259.742 10.5733 259.069 10.3533 258.549 10.1399C258.029 9.92661 257.576 9.59994 257.189 9.15994C256.816 8.71994 256.629 8.13994 256.629 7.41994C256.629 6.83327 256.802 6.29994 257.149 5.81994C257.496 5.32661 257.989 4.93994 258.629 4.65994C259.282 4.37994 260.029 4.23994 260.869 4.23994C262.122 4.23994 263.129 4.55994 263.889 5.19994C264.662 5.82661 265.076 6.68661 265.129 7.77994H262.849C262.809 7.28661 262.609 6.89327 262.249 6.59994C261.889 6.30661 261.402 6.15994 260.789 6.15994C260.189 6.15994 259.729 6.27327 259.409 6.49994C259.089 6.72661 258.929 7.02661 258.929 7.39994C258.929 7.69327 259.036 7.93994 259.249 8.13994C259.462 8.33994 259.722 8.49994 260.029 8.61994C260.336 8.72661 260.789 8.86661 261.389 9.03994C262.189 9.25327 262.842 9.47327 263.349 9.69994C263.869 9.91327 264.316 10.2333 264.689 10.6599C265.062 11.0866 265.256 11.6533 265.269 12.3599C265.269 12.9866 265.096 13.5466 264.749 14.0399C264.402 14.5333 263.909 14.9199 263.269 15.1999C262.642 15.4799 261.902 15.6199 261.049 15.6199Z" fill="#898989"/>
</svg>
