<svg width="186" height="21" viewBox="0 0 186 21" fill="none" xmlns="http://www.w3.org/2000/svg">
<path d="M4.54 1.4999C6.02 1.4999 7.31333 1.78657 8.42 2.3599C9.54 2.9199 10.4 3.73324 11 4.7999C11.6133 5.85324 11.92 7.08657 11.92 8.4999C11.92 9.91324 11.6133 11.1399 11 12.1799C10.4 13.2199 9.54 14.0199 8.42 14.5799C7.31333 15.1266 6.02 15.3999 4.54 15.3999H5.96046e-08V1.4999H4.54ZM4.54 13.5399C6.16667 13.5399 7.41333 13.0999 8.28 12.2199C9.14667 11.3399 9.58 10.0999 9.58 8.4999C9.58 6.88657 9.14667 5.62657 8.28 4.7199C7.41333 3.81323 6.16667 3.3599 4.54 3.3599H2.28V13.5399H4.54ZM24.2797 9.6199C24.2797 10.0332 24.253 10.4066 24.1997 10.7399H15.7797C15.8464 11.6199 16.173 12.3266 16.7597 12.8599C17.3464 13.3932 18.0664 13.6599 18.9197 13.6599C20.1464 13.6599 21.013 13.1466 21.5197 12.1199H23.9797C23.6464 13.1332 23.0397 13.9666 22.1597 14.6199C21.293 15.2599 20.213 15.5799 18.9197 15.5799C17.8664 15.5799 16.9197 15.3466 16.0797 14.8799C15.253 14.3999 14.5997 13.7332 14.1197 12.8799C13.653 12.0132 13.4197 11.0132 13.4197 9.8799C13.4197 8.74657 13.6464 7.75324 14.0997 6.8999C14.5664 6.03324 15.213 5.36657 16.0397 4.8999C16.8797 4.43324 17.8397 4.1999 18.9197 4.1999C19.9597 4.1999 20.8864 4.42657 21.6997 4.8799C22.513 5.33324 23.1464 5.97324 23.5997 6.7999C24.053 7.61324 24.2797 8.55324 24.2797 9.6199ZM21.8997 8.8999C21.8864 8.0599 21.5864 7.38657 20.9997 6.8799C20.413 6.37324 19.6864 6.1199 18.8197 6.1199C18.033 6.1199 17.3597 6.37324 16.7997 6.8799C16.2397 7.37324 15.9064 8.04657 15.7997 8.8999H21.8997ZM25.7634 9.8399C25.7634 8.73324 25.9901 7.75324 26.4434 6.8999C26.9101 6.04657 27.5368 5.38657 28.3234 4.9199C29.1234 4.4399 30.0101 4.1999 30.9834 4.1999C31.7034 4.1999 32.4101 4.3599 33.1034 4.6799C33.8101 4.98657 34.3701 5.3999 34.7834 5.9199V0.599902H37.0834V15.3999H34.7834V13.7399C34.4101 14.2732 33.8901 14.7132 33.2234 15.0599C32.5701 15.4066 31.8168 15.5799 30.9634 15.5799C30.0034 15.5799 29.1234 15.3399 28.3234 14.8599C27.5368 14.3666 26.9101 13.6866 26.4434 12.8199C25.9901 11.9399 25.7634 10.9466 25.7634 9.8399ZM34.7834 9.8799C34.7834 9.1199 34.6234 8.4599 34.3034 7.8999C33.9968 7.3399 33.5901 6.91324 33.0834 6.6199C32.5768 6.32657 32.0301 6.1799 31.4434 6.1799C30.8568 6.1799 30.3101 6.32657 29.8034 6.6199C29.2968 6.8999 28.8834 7.3199 28.5634 7.8799C28.2568 8.42657 28.1034 9.0799 28.1034 9.8399C28.1034 10.5999 28.2568 11.2666 28.5634 11.8399C28.8834 12.4132 29.2968 12.8532 29.8034 13.1599C30.3234 13.4532 30.8701 13.5999 31.4434 13.5999C32.0301 13.5999 32.5768 13.4532 33.0834 13.1599C33.5901 12.8666 33.9968 12.4399 34.3034 11.8799C34.6234 11.3066 34.7834 10.6399 34.7834 9.8799ZM41.2381 2.9199C40.8248 2.9199 40.4781 2.7799 40.1981 2.4999C39.9181 2.2199 39.7781 1.87324 39.7781 1.4599C39.7781 1.04657 39.9181 0.699902 40.1981 0.419902C40.4781 0.139902 40.8248 -9.84669e-05 41.2381 -9.84669e-05C41.6381 -9.84669e-05 41.9781 0.139902 42.2581 0.419902C42.5381 0.699902 42.6781 1.04657 42.6781 1.4599C42.6781 1.87324 42.5381 2.2199 42.2581 2.4999C41.9781 2.7799 41.6381 2.9199 41.2381 2.9199ZM42.3581 4.3799V15.3999H40.0781V4.3799H42.3581ZM44.5916 9.8799C44.5916 8.74657 44.8182 7.75324 45.2716 6.8999C45.7382 6.03324 46.3782 5.36657 47.1916 4.8999C48.0049 4.43324 48.9382 4.1999 49.9916 4.1999C51.3249 4.1999 52.4249 4.5199 53.2916 5.1599C54.1716 5.78657 54.7649 6.68657 55.0716 7.8599H52.6116C52.4116 7.31324 52.0916 6.88657 51.6516 6.5799C51.2116 6.27324 50.6582 6.1199 49.9916 6.1199C49.0582 6.1199 48.3116 6.45324 47.7516 7.1199C47.2049 7.77324 46.9316 8.69324 46.9316 9.8799C46.9316 11.0666 47.2049 11.9932 47.7516 12.6599C48.3116 13.3266 49.0582 13.6599 49.9916 13.6599C51.3116 13.6599 52.1849 13.0799 52.6116 11.9199H55.0716C54.7516 13.0399 54.1516 13.9332 53.2716 14.5999C52.3916 15.2532 51.2982 15.5799 49.9916 15.5799C48.9382 15.5799 48.0049 15.3466 47.1916 14.8799C46.3782 14.3999 45.7382 13.7332 45.2716 12.8799C44.8182 12.0132 44.5916 11.0132 44.5916 9.8799ZM56.5838 9.8399C56.5838 8.73324 56.8104 7.75324 57.2638 6.8999C57.7304 6.04657 58.3571 5.38657 59.1438 4.9199C59.9438 4.4399 60.8238 4.1999 61.7838 4.1999C62.6504 4.1999 63.4038 4.37324 64.0438 4.7199C64.6971 5.05324 65.2171 5.47324 65.6038 5.9799V4.3799H67.9038V15.3999H65.6038V13.7599C65.2171 14.2799 64.6904 14.7132 64.0238 15.0599C63.3571 15.4066 62.5971 15.5799 61.7438 15.5799C60.7971 15.5799 59.9304 15.3399 59.1438 14.8599C58.3571 14.3666 57.7304 13.6866 57.2638 12.8199C56.8104 11.9399 56.5838 10.9466 56.5838 9.8399ZM65.6038 9.8799C65.6038 9.1199 65.4438 8.4599 65.1238 7.8999C64.8171 7.3399 64.4104 6.91324 63.9038 6.6199C63.3971 6.32657 62.8504 6.1799 62.2638 6.1799C61.6771 6.1799 61.1304 6.32657 60.6238 6.6199C60.1171 6.8999 59.7038 7.3199 59.3838 7.8799C59.0771 8.42657 58.9238 9.0799 58.9238 9.8399C58.9238 10.5999 59.0771 11.2666 59.3838 11.8399C59.7038 12.4132 60.1171 12.8532 60.6238 13.1599C61.1438 13.4532 61.6904 13.5999 62.2638 13.5999C62.8504 13.5999 63.3971 13.4532 63.9038 13.1599C64.4104 12.8666 64.8171 12.4399 65.1238 11.8799C65.4438 11.3066 65.6038 10.6399 65.6038 9.8799ZM73.5584 6.2399V12.3399C73.5584 12.7532 73.6518 13.0532 73.8384 13.2399C74.0384 13.4132 74.3718 13.4999 74.8384 13.4999H76.2384V15.3999H74.4384C73.4118 15.3999 72.6251 15.1599 72.0784 14.6799C71.5318 14.1999 71.2584 13.4199 71.2584 12.3399V6.2399H69.9584V4.3799H71.2584V1.6399H73.5584V4.3799H76.2384V6.2399H73.5584ZM88.4398 9.6199C88.4398 10.0332 88.4132 10.4066 88.3598 10.7399H79.9398C80.0065 11.6199 80.3332 12.3266 80.9198 12.8599C81.5065 13.3932 82.2265 13.6599 83.0798 13.6599C84.3065 13.6599 85.1732 13.1466 85.6798 12.1199H88.1398C87.8065 13.1332 87.1998 13.9666 86.3198 14.6199C85.4532 15.2599 84.3732 15.5799 83.0798 15.5799C82.0265 15.5799 81.0798 15.3466 80.2398 14.8799C79.4132 14.3999 78.7598 13.7332 78.2798 12.8799C77.8132 12.0132 77.5798 11.0132 77.5798 9.8799C77.5798 8.74657 77.8065 7.75324 78.2598 6.8999C78.7265 6.03324 79.3732 5.36657 80.1998 4.8999C81.0398 4.43324 81.9998 4.1999 83.0798 4.1999C84.1198 4.1999 85.0465 4.42657 85.8598 4.8799C86.6732 5.33324 87.3065 5.97324 87.7598 6.7999C88.2132 7.61324 88.4398 8.55324 88.4398 9.6199ZM86.0598 8.8999C86.0465 8.0599 85.7465 7.38657 85.1598 6.8799C84.5732 6.37324 83.8465 6.1199 82.9798 6.1199C82.1932 6.1199 81.5198 6.37324 80.9598 6.8799C80.3998 7.37324 80.0665 8.04657 79.9598 8.8999H86.0598ZM89.9236 9.8399C89.9236 8.73324 90.1503 7.75324 90.6036 6.8999C91.0703 6.04657 91.6969 5.38657 92.4836 4.9199C93.2836 4.4399 94.1703 4.1999 95.1436 4.1999C95.8636 4.1999 96.5703 4.3599 97.2636 4.6799C97.9703 4.98657 98.5303 5.3999 98.9436 5.9199V0.599902H101.244V15.3999H98.9436V13.7399C98.5703 14.2732 98.0503 14.7132 97.3836 15.0599C96.7303 15.4066 95.9769 15.5799 95.1236 15.5799C94.1636 15.5799 93.2836 15.3399 92.4836 14.8599C91.6969 14.3666 91.0703 13.6866 90.6036 12.8199C90.1503 11.9399 89.9236 10.9466 89.9236 9.8399ZM98.9436 9.8799C98.9436 9.1199 98.7836 8.4599 98.4636 7.8999C98.1569 7.3399 97.7503 6.91324 97.2436 6.6199C96.7369 6.32657 96.1903 6.1799 95.6036 6.1799C95.0169 6.1799 94.4703 6.32657 93.9636 6.6199C93.4569 6.8999 93.0436 7.3199 92.7236 7.8799C92.4169 8.42657 92.2636 9.0799 92.2636 9.8399C92.2636 10.5999 92.4169 11.2666 92.7236 11.8399C93.0436 12.4132 93.4569 12.8532 93.9636 13.1599C94.4836 13.4532 95.0303 13.5999 95.6036 13.5999C96.1903 13.5999 96.7369 13.4532 97.2436 13.1599C97.7503 12.8666 98.1569 12.4399 98.4636 11.8799C98.7836 11.3066 98.9436 10.6399 98.9436 9.8799ZM113.434 15.5799C112.567 15.5799 111.787 15.4266 111.094 15.1199C110.414 14.7999 109.874 14.3732 109.474 13.8399C109.074 13.2932 108.86 12.6866 108.834 12.0199H111.194C111.234 12.4866 111.454 12.8799 111.854 13.1999C112.267 13.5066 112.78 13.6599 113.394 13.6599C114.034 13.6599 114.527 13.5399 114.874 13.2999C115.234 13.0466 115.414 12.7266 115.414 12.3399C115.414 11.9266 115.214 11.6199 114.814 11.4199C114.427 11.2199 113.807 10.9999 112.954 10.7599C112.127 10.5332 111.454 10.3132 110.934 10.0999C110.414 9.88657 109.96 9.5599 109.574 9.1199C109.2 8.6799 109.014 8.0999 109.014 7.3799C109.014 6.79324 109.187 6.2599 109.534 5.7799C109.88 5.28657 110.374 4.8999 111.014 4.6199C111.667 4.3399 112.414 4.1999 113.254 4.1999C114.507 4.1999 115.514 4.5199 116.274 5.1599C117.047 5.78657 117.46 6.64657 117.514 7.7399H115.234C115.194 7.24657 114.994 6.85324 114.634 6.5599C114.274 6.26657 113.787 6.1199 113.174 6.1199C112.574 6.1199 112.114 6.23324 111.794 6.4599C111.474 6.68657 111.314 6.98657 111.314 7.3599C111.314 7.65324 111.42 7.8999 111.634 8.0999C111.847 8.2999 112.107 8.4599 112.414 8.5799C112.72 8.68657 113.174 8.82657 113.774 8.9999C114.574 9.21324 115.227 9.43324 115.734 9.6599C116.254 9.87324 116.7 10.1932 117.074 10.6199C117.447 11.0466 117.64 11.6132 117.654 12.3199C117.654 12.9466 117.48 13.5066 117.134 13.9999C116.787 14.4932 116.294 14.8799 115.654 15.1599C115.027 15.4399 114.287 15.5799 113.434 15.5799ZM130.097 4.3799V15.3999H127.817V14.0999C127.457 14.5532 126.984 14.9132 126.397 15.1799C125.824 15.4332 125.211 15.5599 124.557 15.5599C123.691 15.5599 122.911 15.3799 122.217 15.0199C121.537 14.6599 120.997 14.1266 120.597 13.4199C120.211 12.7132 120.017 11.8599 120.017 10.8599V4.3799H122.277V10.5199C122.277 11.5066 122.524 12.2666 123.017 12.7999C123.511 13.3199 124.184 13.5799 125.037 13.5799C125.891 13.5799 126.564 13.3199 127.057 12.7999C127.564 12.2666 127.817 11.5066 127.817 10.5199V4.3799H130.097ZM135.385 5.9999C135.772 5.49324 136.299 5.06657 136.965 4.7199C137.632 4.37324 138.385 4.1999 139.225 4.1999C140.185 4.1999 141.059 4.4399 141.845 4.9199C142.645 5.38657 143.272 6.04657 143.725 6.8999C144.179 7.75324 144.405 8.73324 144.405 9.8399C144.405 10.9466 144.179 11.9399 143.725 12.8199C143.272 13.6866 142.645 14.3666 141.845 14.8599C141.059 15.3399 140.185 15.5799 139.225 15.5799C138.385 15.5799 137.639 15.4132 136.985 15.0799C136.332 14.7332 135.799 14.3066 135.385 13.7999V20.6399H133.105V4.3799H135.385V5.9999ZM142.085 9.8399C142.085 9.0799 141.925 8.42657 141.605 7.8799C141.299 7.3199 140.885 6.8999 140.365 6.6199C139.859 6.32657 139.312 6.1799 138.725 6.1799C138.152 6.1799 137.605 6.32657 137.085 6.6199C136.579 6.91324 136.165 7.3399 135.845 7.8999C135.539 8.4599 135.385 9.1199 135.385 9.8799C135.385 10.6399 135.539 11.3066 135.845 11.8799C136.165 12.4399 136.579 12.8666 137.085 13.1599C137.605 13.4532 138.152 13.5999 138.725 13.5999C139.312 13.5999 139.859 13.4532 140.365 13.1599C140.885 12.8532 141.299 12.4132 141.605 11.8399C141.925 11.2666 142.085 10.5999 142.085 9.8399ZM148.94 5.9999C149.327 5.49324 149.853 5.06657 150.52 4.7199C151.187 4.37324 151.94 4.1999 152.78 4.1999C153.74 4.1999 154.613 4.4399 155.4 4.9199C156.2 5.38657 156.827 6.04657 157.28 6.8999C157.733 7.75324 157.96 8.73324 157.96 9.8399C157.96 10.9466 157.733 11.9399 157.28 12.8199C156.827 13.6866 156.2 14.3666 155.4 14.8599C154.613 15.3399 153.74 15.5799 152.78 15.5799C151.94 15.5799 151.193 15.4132 150.54 15.0799C149.887 14.7332 149.353 14.3066 148.94 13.7999V20.6399H146.66V4.3799H148.94V5.9999ZM155.64 9.8399C155.64 9.0799 155.48 8.42657 155.16 7.8799C154.853 7.3199 154.44 6.8999 153.92 6.6199C153.413 6.32657 152.867 6.1799 152.28 6.1799C151.707 6.1799 151.16 6.32657 150.64 6.6199C150.133 6.91324 149.72 7.3399 149.4 7.8999C149.093 8.4599 148.94 9.1199 148.94 9.8799C148.94 10.6399 149.093 11.3066 149.4 11.8799C149.72 12.4399 150.133 12.8666 150.64 13.1599C151.16 13.4532 151.707 13.5999 152.28 13.5999C152.867 13.5999 153.413 13.4532 153.92 13.1599C154.44 12.8532 154.853 12.4132 155.16 11.8399C155.48 11.2666 155.64 10.5999 155.64 9.8399ZM164.995 15.5799C163.955 15.5799 163.015 15.3466 162.175 14.8799C161.335 14.3999 160.675 13.7332 160.195 12.8799C159.715 12.0132 159.475 11.0132 159.475 9.8799C159.475 8.7599 159.722 7.76657 160.215 6.8999C160.708 6.03324 161.382 5.36657 162.235 4.8999C163.088 4.43324 164.042 4.1999 165.095 4.1999C166.148 4.1999 167.102 4.43324 167.955 4.8999C168.808 5.36657 169.482 6.03324 169.975 6.8999C170.468 7.76657 170.715 8.7599 170.715 9.8799C170.715 10.9999 170.462 11.9932 169.955 12.8599C169.448 13.7266 168.755 14.3999 167.875 14.8799C167.008 15.3466 166.048 15.5799 164.995 15.5799ZM164.995 13.5999C165.582 13.5999 166.128 13.4599 166.635 13.1799C167.155 12.8999 167.575 12.4799 167.895 11.9199C168.215 11.3599 168.375 10.6799 168.375 9.8799C168.375 9.0799 168.222 8.40657 167.915 7.8599C167.608 7.2999 167.202 6.8799 166.695 6.5999C166.188 6.3199 165.642 6.1799 165.055 6.1799C164.468 6.1799 163.922 6.3199 163.415 6.5999C162.922 6.8799 162.528 7.2999 162.235 7.8599C161.942 8.40657 161.795 9.0799 161.795 9.8799C161.795 11.0666 162.095 11.9866 162.695 12.6399C163.308 13.2799 164.075 13.5999 164.995 13.5999ZM175.249 5.9799C175.582 5.4199 176.022 4.98657 176.569 4.6799C177.129 4.3599 177.789 4.1999 178.549 4.1999V6.5599H177.969C177.075 6.5599 176.395 6.78657 175.929 7.2399C175.475 7.69324 175.249 8.4799 175.249 9.5999V15.3999H172.969V4.3799H175.249V5.9799ZM183.305 6.2399V12.3399C183.305 12.7532 183.398 13.0532 183.585 13.2399C183.785 13.4132 184.118 13.4999 184.585 13.4999H185.985V15.3999H184.185C183.158 15.3999 182.371 15.1599 181.825 14.6799C181.278 14.1999 181.005 13.4199 181.005 12.3399V6.2399H179.705V4.3799H181.005V1.6399H183.305V4.3799H185.985V6.2399H183.305Z" fill="#898989"/>
</svg>
