<svg width="170" height="27" viewBox="0 0 170 27" fill="none" xmlns="http://www.w3.org/2000/svg">
<path d="M10.775 2.1501V4.9751H3.50002V9.4501H9.07502V12.2251H3.50002V19.6001H2.45571e-05V2.1501H10.775ZM16.7569 7.9001C17.2069 7.16676 17.7902 6.59176 18.5069 6.1751C19.2402 5.75843 20.0735 5.5501 21.0069 5.5501V9.2251H20.0819C18.9819 9.2251 18.1485 9.48343 17.5819 10.0001C17.0319 10.5168 16.7569 11.4168 16.7569 12.7001V19.6001H13.2569V5.7501H16.7569V7.9001ZM36.2393 12.3751C36.2393 12.8751 36.206 13.3251 36.1393 13.7251H26.0143C26.0976 14.7251 26.4476 15.5084 27.0643 16.0751C27.6809 16.6418 28.4393 16.9251 29.3393 16.9251C30.6393 16.9251 31.5643 16.3668 32.1143 15.2501H35.8893C35.4893 16.5834 34.7226 17.6834 33.5893 18.5501C32.4559 19.4001 31.0643 19.8251 29.4143 19.8251C28.0809 19.8251 26.8809 19.5334 25.8143 18.9501C24.7643 18.3501 23.9393 17.5084 23.3393 16.4251C22.7559 15.3418 22.4643 14.0918 22.4643 12.6751C22.4643 11.2418 22.7559 9.98343 23.3393 8.9001C23.9226 7.81676 24.7393 6.98343 25.7893 6.4001C26.8393 5.81676 28.0476 5.5251 29.4143 5.5251C30.7309 5.5251 31.9059 5.80843 32.9393 6.3751C33.9893 6.94176 34.7976 7.7501 35.3643 8.8001C35.9476 9.83343 36.2393 11.0251 36.2393 12.3751ZM32.6143 11.3751C32.5976 10.4751 32.2726 9.75843 31.6393 9.2251C31.0059 8.6751 30.2309 8.4001 29.3143 8.4001C28.4476 8.4001 27.7143 8.66676 27.1143 9.2001C26.5309 9.71676 26.1726 10.4418 26.0393 11.3751H32.6143ZM51.669 12.3751C51.669 12.8751 51.6356 13.3251 51.569 13.7251H41.444C41.5273 14.7251 41.8773 15.5084 42.494 16.0751C43.1106 16.6418 43.869 16.9251 44.769 16.9251C46.069 16.9251 46.994 16.3668 47.544 15.2501H51.319C50.919 16.5834 50.1523 17.6834 49.019 18.5501C47.8856 19.4001 46.494 19.8251 44.844 19.8251C43.5106 19.8251 42.3106 19.5334 41.244 18.9501C40.194 18.3501 39.369 17.5084 38.769 16.4251C38.1856 15.3418 37.894 14.0918 37.894 12.6751C37.894 11.2418 38.1856 9.98343 38.769 8.9001C39.3523 7.81676 40.169 6.98343 41.219 6.4001C42.269 5.81676 43.4773 5.5251 44.844 5.5251C46.1606 5.5251 47.3356 5.80843 48.369 6.3751C49.419 6.94176 50.2273 7.7501 50.794 8.8001C51.3773 9.83343 51.669 11.0251 51.669 12.3751ZM48.044 11.3751C48.0273 10.4751 47.7023 9.75843 47.069 9.2251C46.4356 8.6751 45.6606 8.4001 44.744 8.4001C43.8773 8.4001 43.144 8.66676 42.544 9.2001C41.9606 9.71676 41.6023 10.4418 41.469 11.3751H48.044ZM66.2057 19.7751C64.989 19.7751 63.889 19.5668 62.9057 19.1501C61.939 18.7334 61.1724 18.1334 60.6057 17.3501C60.039 16.5668 59.7474 15.6418 59.7307 14.5751H63.4807C63.5307 15.2918 63.7807 15.8584 64.2307 16.2751C64.6974 16.6918 65.3307 16.9001 66.1307 16.9001C66.9474 16.9001 67.589 16.7084 68.0557 16.3251C68.5224 15.9251 68.7557 15.4084 68.7557 14.7751C68.7557 14.2584 68.5974 13.8334 68.2807 13.5001C67.964 13.1668 67.564 12.9084 67.0807 12.7251C66.614 12.5251 65.964 12.3084 65.1307 12.0751C63.9974 11.7418 63.0724 11.4168 62.3557 11.1001C61.6557 10.7668 61.0474 10.2751 60.5307 9.6251C60.0307 8.95843 59.7807 8.0751 59.7807 6.9751C59.7807 5.94176 60.039 5.04176 60.5557 4.2751C61.0724 3.50843 61.7974 2.9251 62.7307 2.5251C63.664 2.10843 64.7307 1.9001 65.9307 1.9001C67.7307 1.9001 69.189 2.34176 70.3057 3.2251C71.439 4.09176 72.064 5.30843 72.1807 6.8751H68.3307C68.2974 6.2751 68.039 5.78343 67.5557 5.4001C67.089 5.0001 66.464 4.8001 65.6807 4.8001C64.9974 4.8001 64.4474 4.9751 64.0307 5.3251C63.6307 5.6751 63.4307 6.18343 63.4307 6.8501C63.4307 7.31676 63.5807 7.70843 63.8807 8.0251C64.1974 8.3251 64.5807 8.5751 65.0307 8.7751C65.4974 8.95843 66.1474 9.1751 66.9807 9.4251C68.114 9.75843 69.039 10.0918 69.7557 10.4251C70.4724 10.7584 71.089 11.2584 71.6057 11.9251C72.1224 12.5918 72.3807 13.4668 72.3807 14.5501C72.3807 15.4834 72.139 16.3501 71.6557 17.1501C71.1724 17.9501 70.464 18.5918 69.5307 19.0751C68.5974 19.5418 67.489 19.7751 66.2057 19.7751ZM83.2151 5.5501C84.2651 5.5501 85.1984 5.78343 86.0151 6.2501C86.8317 6.7001 87.4651 7.3751 87.9151 8.2751C88.3817 9.15843 88.6151 10.2251 88.6151 11.4751V19.6001H85.1151V11.9501C85.1151 10.8501 84.8401 10.0084 84.2901 9.4251C83.7401 8.8251 82.9901 8.5251 82.0401 8.5251C81.0734 8.5251 80.3067 8.8251 79.7401 9.4251C79.1901 10.0084 78.9151 10.8501 78.9151 11.9501V19.6001H75.4151V1.1001H78.9151V7.4751C79.3651 6.8751 79.9651 6.40843 80.7151 6.0751C81.4651 5.7251 82.2984 5.5501 83.2151 5.5501ZM93.7184 4.1001C93.1017 4.1001 92.5851 3.90843 92.1684 3.5251C91.7684 3.1251 91.5684 2.63343 91.5684 2.0501C91.5684 1.46676 91.7684 0.98343 92.1684 0.600096C92.5851 0.200097 93.1017 9.66787e-05 93.7184 9.66787e-05C94.3351 9.66787e-05 94.8434 0.200097 95.2434 0.600096C95.6601 0.98343 95.8684 1.46676 95.8684 2.0501C95.8684 2.63343 95.6601 3.1251 95.2434 3.5251C94.8434 3.90843 94.3351 4.1001 93.7184 4.1001ZM95.4434 5.7501V19.6001H91.9434V5.7501H95.4434ZM102.401 7.7501C102.851 7.11676 103.468 6.59176 104.251 6.1751C105.051 5.74176 105.96 5.5251 106.976 5.5251C108.16 5.5251 109.226 5.81676 110.176 6.4001C111.143 6.98343 111.901 7.81676 112.451 8.9001C113.018 9.96676 113.301 11.2084 113.301 12.6251C113.301 14.0418 113.018 15.3001 112.451 16.4001C111.901 17.4834 111.143 18.3251 110.176 18.9251C109.226 19.5251 108.16 19.8251 106.976 19.8251C105.96 19.8251 105.06 19.6168 104.276 19.2001C103.51 18.7834 102.885 18.2584 102.401 17.6251V26.2001H98.9014V5.7501H102.401V7.7501ZM109.726 12.6251C109.726 11.7918 109.551 11.0751 109.201 10.4751C108.868 9.85843 108.418 9.39176 107.851 9.0751C107.301 8.75843 106.701 8.6001 106.051 8.6001C105.418 8.6001 104.818 8.76676 104.251 9.1001C103.701 9.41676 103.251 9.88343 102.901 10.5001C102.568 11.1168 102.401 11.8418 102.401 12.6751C102.401 13.5084 102.568 14.2334 102.901 14.8501C103.251 15.4668 103.701 15.9418 104.251 16.2751C104.818 16.5918 105.418 16.7501 106.051 16.7501C106.701 16.7501 107.301 16.5834 107.851 16.2501C108.418 15.9168 108.868 15.4418 109.201 14.8251C109.551 14.2084 109.726 13.4751 109.726 12.6251ZM119.345 7.7501C119.795 7.11676 120.411 6.59176 121.195 6.1751C121.995 5.74176 122.903 5.5251 123.92 5.5251C125.103 5.5251 126.17 5.81676 127.12 6.4001C128.086 6.98343 128.845 7.81676 129.395 8.9001C129.961 9.96676 130.245 11.2084 130.245 12.6251C130.245 14.0418 129.961 15.3001 129.395 16.4001C128.845 17.4834 128.086 18.3251 127.12 18.9251C126.17 19.5251 125.103 19.8251 123.92 19.8251C122.903 19.8251 122.003 19.6168 121.22 19.2001C120.453 18.7834 119.828 18.2584 119.345 17.6251V26.2001H115.845V5.7501H119.345V7.7501ZM126.67 12.6251C126.67 11.7918 126.495 11.0751 126.145 10.4751C125.811 9.85843 125.361 9.39176 124.795 9.0751C124.245 8.75843 123.645 8.6001 122.995 8.6001C122.361 8.6001 121.761 8.76676 121.195 9.1001C120.645 9.41676 120.195 9.88343 119.845 10.5001C119.511 11.1168 119.345 11.8418 119.345 12.6751C119.345 13.5084 119.511 14.2334 119.845 14.8501C120.195 15.4668 120.645 15.9418 121.195 16.2751C121.761 16.5918 122.361 16.7501 122.995 16.7501C123.645 16.7501 124.245 16.5834 124.795 16.2501C125.361 15.9168 125.811 15.4418 126.145 14.8251C126.495 14.2084 126.67 13.4751 126.67 12.6251ZM134.563 4.1001C133.946 4.1001 133.43 3.90843 133.013 3.5251C132.613 3.1251 132.413 2.63343 132.413 2.0501C132.413 1.46676 132.613 0.98343 133.013 0.600096C133.43 0.200097 133.946 9.66787e-05 134.563 9.66787e-05C135.18 9.66787e-05 135.688 0.200097 136.088 0.600096C136.505 0.98343 136.713 1.46676 136.713 2.0501C136.713 2.63343 136.505 3.1251 136.088 3.5251C135.688 3.90843 135.18 4.1001 134.563 4.1001ZM136.288 5.7501V19.6001H132.788V5.7501H136.288ZM147.421 5.5501C149.071 5.5501 150.404 6.0751 151.421 7.1251C152.438 8.15843 152.946 9.60843 152.946 11.4751V19.6001H149.446V11.9501C149.446 10.8501 149.171 10.0084 148.621 9.4251C148.071 8.8251 147.321 8.5251 146.371 8.5251C145.404 8.5251 144.638 8.8251 144.071 9.4251C143.521 10.0084 143.246 10.8501 143.246 11.9501V19.6001H139.746V5.7501H143.246V7.4751C143.713 6.8751 144.304 6.40843 145.021 6.0751C145.754 5.7251 146.554 5.5501 147.421 5.5501ZM161.699 5.5251C162.733 5.5251 163.641 5.73343 164.424 6.1501C165.208 6.5501 165.824 7.0751 166.274 7.7251V5.7501H169.799V19.7001C169.799 20.9834 169.541 22.1251 169.024 23.1251C168.508 24.1418 167.733 24.9418 166.699 25.5251C165.666 26.1251 164.416 26.4251 162.949 26.4251C160.983 26.4251 159.366 25.9668 158.099 25.0501C156.849 24.1334 156.141 22.8834 155.974 21.3001H159.449C159.633 21.9334 160.024 22.4334 160.624 22.8001C161.241 23.1834 161.983 23.3751 162.849 23.3751C163.866 23.3751 164.691 23.0668 165.324 22.4501C165.958 21.8501 166.274 20.9334 166.274 19.7001V17.5501C165.824 18.2001 165.199 18.7418 164.399 19.1751C163.616 19.6084 162.716 19.8251 161.699 19.8251C160.533 19.8251 159.466 19.5251 158.499 18.9251C157.533 18.3251 156.766 17.4834 156.199 16.4001C155.649 15.3001 155.374 14.0418 155.374 12.6251C155.374 11.2251 155.649 9.98343 156.199 8.9001C156.766 7.81676 157.524 6.98343 158.474 6.4001C159.441 5.81676 160.516 5.5251 161.699 5.5251ZM166.274 12.6751C166.274 11.8251 166.108 11.1001 165.774 10.5001C165.441 9.88343 164.991 9.41676 164.424 9.1001C163.858 8.76676 163.249 8.6001 162.599 8.6001C161.949 8.6001 161.349 8.75843 160.799 9.0751C160.249 9.39176 159.799 9.85843 159.449 10.4751C159.116 11.0751 158.949 11.7918 158.949 12.6251C158.949 13.4584 159.116 14.1918 159.449 14.8251C159.799 15.4418 160.249 15.9168 160.799 16.2501C161.366 16.5834 161.966 16.7501 162.599 16.7501C163.249 16.7501 163.858 16.5918 164.424 16.2751C164.991 15.9418 165.441 15.4751 165.774 14.8751C166.108 14.2584 166.274 13.5251 166.274 12.6751Z" fill="#242424"/>
</svg>
