<svg width="155" height="27" viewBox="0 0 155 27" fill="none" xmlns="http://www.w3.org/2000/svg">
<path d="M14.475 2.1501V19.6001H10.975V12.1751H3.5V19.6001H-2.38419e-07V2.1501H3.5V9.3251H10.975V2.1501H14.475ZM19.6949 4.1001C19.0783 4.1001 18.5616 3.90843 18.1449 3.5251C17.7449 3.1251 17.5449 2.63343 17.5449 2.0501C17.5449 1.46676 17.7449 0.98343 18.1449 0.600096C18.5616 0.200097 19.0783 9.66787e-05 19.6949 9.66787e-05C20.3116 9.66787e-05 20.8199 0.200097 21.2199 0.600096C21.6366 0.98343 21.8449 1.46676 21.8449 2.0501C21.8449 2.63343 21.6366 3.1251 21.2199 3.5251C20.8199 3.90843 20.3116 4.1001 19.6949 4.1001ZM21.4199 5.7501V19.6001H17.9199V5.7501H21.4199ZM30.3029 5.5251C31.3363 5.5251 32.2446 5.73343 33.0279 6.1501C33.8113 6.5501 34.4279 7.0751 34.8779 7.7251V5.7501H38.4029V19.7001C38.4029 20.9834 38.1446 22.1251 37.6279 23.1251C37.1113 24.1418 36.3363 24.9418 35.3029 25.5251C34.2696 26.1251 33.0196 26.4251 31.5529 26.4251C29.5863 26.4251 27.9696 25.9668 26.7029 25.0501C25.4529 24.1334 24.7446 22.8834 24.5779 21.3001H28.0529C28.2363 21.9334 28.6279 22.4334 29.2279 22.8001C29.8446 23.1834 30.5863 23.3751 31.4529 23.3751C32.4696 23.3751 33.2946 23.0668 33.9279 22.4501C34.5613 21.8501 34.8779 20.9334 34.8779 19.7001V17.5501C34.4279 18.2001 33.8029 18.7418 33.0029 19.1751C32.2196 19.6084 31.3196 19.8251 30.3029 19.8251C29.1363 19.8251 28.0696 19.5251 27.1029 18.9251C26.1363 18.3251 25.3696 17.4834 24.8029 16.4001C24.2529 15.3001 23.9779 14.0418 23.9779 12.6251C23.9779 11.2251 24.2529 9.98343 24.8029 8.9001C25.3696 7.81676 26.1279 6.98343 27.0779 6.4001C28.0446 5.81676 29.1196 5.5251 30.3029 5.5251ZM34.8779 12.6751C34.8779 11.8251 34.7113 11.1001 34.3779 10.5001C34.0446 9.88343 33.5946 9.41676 33.0279 9.1001C32.4613 8.76676 31.8529 8.6001 31.2029 8.6001C30.5529 8.6001 29.9529 8.75843 29.4029 9.0751C28.8529 9.39176 28.4029 9.85843 28.0529 10.4751C27.7196 11.0751 27.5529 11.7918 27.5529 12.6251C27.5529 13.4584 27.7196 14.1918 28.0529 14.8251C28.4029 15.4418 28.8529 15.9168 29.4029 16.2501C29.9696 16.5834 30.5696 16.7501 31.2029 16.7501C31.8529 16.7501 32.4613 16.5918 33.0279 16.2751C33.5946 15.9418 34.0446 15.4751 34.3779 14.8751C34.7113 14.2584 34.8779 13.5251 34.8779 12.6751ZM49.6213 5.5501C50.6713 5.5501 51.6046 5.78343 52.4213 6.2501C53.238 6.7001 53.8713 7.3751 54.3213 8.2751C54.788 9.15843 55.0213 10.2251 55.0213 11.4751V19.6001H51.5213V11.9501C51.5213 10.8501 51.2463 10.0084 50.6963 9.4251C50.1463 8.8251 49.3963 8.5251 48.4463 8.5251C47.4796 8.5251 46.713 8.8251 46.1463 9.4251C45.5963 10.0084 45.3213 10.8501 45.3213 11.9501V19.6001H41.8213V1.1001H45.3213V7.4751C45.7713 6.8751 46.3713 6.40843 47.1213 6.0751C47.8713 5.7251 48.7046 5.5501 49.6213 5.5501ZM77.3066 22.6751L74.6566 19.5001C73.9233 19.6834 73.1733 19.7751 72.4066 19.7751C70.7733 19.7751 69.2733 19.3918 67.9066 18.6251C66.54 17.8584 65.4566 16.8001 64.6566 15.4501C63.8566 14.0834 63.4566 12.5418 63.4566 10.8251C63.4566 9.1251 63.8566 7.6001 64.6566 6.2501C65.4566 4.88343 66.54 3.81676 67.9066 3.0501C69.2733 2.28343 70.7733 1.9001 72.4066 1.9001C74.0566 1.9001 75.5566 2.28343 76.9066 3.0501C78.2733 3.81676 79.3483 4.88343 80.1316 6.2501C80.9316 7.6001 81.3316 9.1251 81.3316 10.8251C81.3316 12.3751 80.9983 13.7918 80.3316 15.0751C79.6816 16.3418 78.79 17.3751 77.6566 18.1751L81.6566 22.6751H77.3066ZM67.0566 10.8251C67.0566 11.9918 67.2816 13.0168 67.7316 13.9001C68.1816 14.7834 68.8066 15.4668 69.6066 15.9501C70.4233 16.4168 71.3566 16.6501 72.4066 16.6501C73.4566 16.6501 74.3816 16.4168 75.1816 15.9501C75.9816 15.4668 76.6066 14.7834 77.0566 13.9001C77.5066 13.0168 77.7316 11.9918 77.7316 10.8251C77.7316 9.65843 77.5066 8.64176 77.0566 7.7751C76.6066 6.89176 75.9816 6.21676 75.1816 5.7501C74.3816 5.28343 73.4566 5.0501 72.4066 5.0501C71.3566 5.0501 70.4233 5.28343 69.6066 5.7501C68.8066 6.21676 68.1816 6.89176 67.7316 7.7751C67.2816 8.64176 67.0566 9.65843 67.0566 10.8251ZM97.0594 5.7501V19.6001H93.5344V17.8501C93.0844 18.4501 92.4927 18.9251 91.7594 19.2751C91.0427 19.6084 90.2594 19.7751 89.4094 19.7751C88.326 19.7751 87.3677 19.5501 86.5344 19.1001C85.701 18.6334 85.0427 17.9584 84.5594 17.0751C84.0927 16.1751 83.8594 15.1084 83.8594 13.8751V5.7501H87.3594V13.3751C87.3594 14.4751 87.6344 15.3251 88.1844 15.9251C88.7344 16.5084 89.4844 16.8001 90.4344 16.8001C91.401 16.8001 92.1594 16.5084 92.7094 15.9251C93.2594 15.3251 93.5344 14.4751 93.5344 13.3751V5.7501H97.0594ZM99.6127 12.6251C99.6127 11.2251 99.8877 9.98343 100.438 8.9001C101.004 7.81676 101.763 6.98343 102.713 6.4001C103.679 5.81676 104.754 5.5251 105.938 5.5251C106.971 5.5251 107.871 5.73343 108.638 6.1501C109.421 6.56676 110.046 7.09176 110.513 7.7251V5.7501H114.038V19.6001H110.513V17.5751C110.063 18.2251 109.438 18.7668 108.638 19.2001C107.854 19.6168 106.946 19.8251 105.913 19.8251C104.746 19.8251 103.679 19.5251 102.713 18.9251C101.763 18.3251 101.004 17.4834 100.438 16.4001C99.8877 15.3001 99.6127 14.0418 99.6127 12.6251ZM110.513 12.6751C110.513 11.8251 110.346 11.1001 110.013 10.5001C109.679 9.88343 109.229 9.41676 108.663 9.1001C108.096 8.76676 107.488 8.6001 106.838 8.6001C106.188 8.6001 105.588 8.75843 105.038 9.0751C104.488 9.39176 104.038 9.85843 103.688 10.4751C103.354 11.0751 103.188 11.7918 103.188 12.6251C103.188 13.4584 103.354 14.1918 103.688 14.8251C104.038 15.4418 104.488 15.9168 105.038 16.2501C105.604 16.5834 106.204 16.7501 106.838 16.7501C107.488 16.7501 108.096 16.5918 108.663 16.2751C109.229 15.9418 109.679 15.4751 110.013 14.8751C110.346 14.2584 110.513 13.5251 110.513 12.6751ZM120.956 1.1001V19.6001H117.456V1.1001H120.956ZM126.189 4.1001C125.572 4.1001 125.056 3.90843 124.639 3.5251C124.239 3.1251 124.039 2.63343 124.039 2.0501C124.039 1.46676 124.239 0.98343 124.639 0.600096C125.056 0.200097 125.572 9.66787e-05 126.189 9.66787e-05C126.806 9.66787e-05 127.314 0.200097 127.714 0.600096C128.131 0.98343 128.339 1.46676 128.339 2.0501C128.339 2.63343 128.131 3.1251 127.714 3.5251C127.314 3.90843 126.806 4.1001 126.189 4.1001ZM127.914 5.7501V19.6001H124.414V5.7501H127.914ZM135.447 8.6251V15.3251C135.447 15.7918 135.555 16.1334 135.772 16.3501C136.005 16.5501 136.389 16.6501 136.922 16.6501H138.547V19.6001H136.347C133.397 19.6001 131.922 18.1668 131.922 15.3001V8.6251H130.272V5.7501H131.922V2.3251H135.447V5.7501H138.547V8.6251H135.447ZM154.314 5.7501L145.739 26.1501H142.014L145.014 19.2501L139.464 5.7501H143.389L146.964 15.4251L150.589 5.7501H154.314Z" fill="#242424"/>
</svg>
