<svg width="160" height="18" viewBox="0 0 160 18" fill="none" xmlns="http://www.w3.org/2000/svg">
<path d="M7.10001 15.8199C5.80668 15.8199 4.61334 15.5199 3.52001 14.9199C2.44001 14.3066 1.58001 13.4599 0.94001 12.3799C0.313343 11.2866 9.77516e-06 10.0599 9.77516e-06 8.69993C9.77516e-06 7.33993 0.313343 6.11993 0.94001 5.03993C1.58001 3.95993 2.44001 3.11993 3.52001 2.51993C4.61334 1.9066 5.80668 1.59993 7.10001 1.59993C8.40668 1.59993 9.60001 1.9066 10.68 2.51993C11.7733 3.11993 12.6333 3.95993 13.26 5.03993C13.8867 6.11993 14.2 7.33993 14.2 8.69993C14.2 10.0599 13.8867 11.2866 13.26 12.3799C12.6333 13.4599 11.7733 14.3066 10.68 14.9199C9.60001 15.5199 8.40668 15.8199 7.10001 15.8199ZM7.10001 13.8399C8.02001 13.8399 8.84001 13.6333 9.56001 13.2199C10.28 12.7933 10.84 12.1933 11.24 11.4199C11.6533 10.6333 11.86 9.7266 11.86 8.69993C11.86 7.67326 11.6533 6.77326 11.24 5.99993C10.84 5.2266 10.28 4.63326 9.56001 4.21993C8.84001 3.8066 8.02001 3.59993 7.10001 3.59993C6.18001 3.59993 5.36001 3.8066 4.64001 4.21993C3.92001 4.63326 3.35334 5.2266 2.94001 5.99993C2.54001 6.77326 2.34001 7.67326 2.34001 8.69993C2.34001 9.7266 2.54001 10.6333 2.94001 11.4199C3.35334 12.1933 3.92001 12.7933 4.64001 13.2199C5.36001 13.6333 6.18001 13.8399 7.10001 13.8399ZM18.7236 6.25993C19.0569 5.69993 19.4969 5.2666 20.0436 4.95993C20.6036 4.63993 21.2636 4.47993 22.0236 4.47993V6.83993H21.4436C20.5503 6.83993 19.8703 7.0666 19.4036 7.51993C18.9503 7.97326 18.7236 8.75993 18.7236 9.87993V15.6799H16.4436V4.65993H18.7236V6.25993ZM23.3594 10.1199C23.3594 9.01326 23.5861 8.03326 24.0394 7.17993C24.5061 6.3266 25.1327 5.6666 25.9194 5.19993C26.7194 4.71993 27.6061 4.47993 28.5794 4.47993C29.2994 4.47993 30.0061 4.63993 30.6994 4.95993C31.4061 5.2666 31.9661 5.67993 32.3794 6.19993V0.879931H34.6794V15.6799H32.3794V14.0199C32.0061 14.5533 31.4861 14.9933 30.8194 15.3399C30.1661 15.6866 29.4127 15.8599 28.5594 15.8599C27.5994 15.8599 26.7194 15.6199 25.9194 15.1399C25.1327 14.6466 24.5061 13.9666 24.0394 13.0999C23.5861 12.2199 23.3594 11.2266 23.3594 10.1199ZM32.3794 10.1599C32.3794 9.39993 32.2194 8.73993 31.8994 8.17993C31.5927 7.61993 31.1861 7.19326 30.6794 6.89993C30.1727 6.6066 29.6261 6.45993 29.0394 6.45993C28.4527 6.45993 27.9061 6.6066 27.3994 6.89993C26.8927 7.17993 26.4794 7.59993 26.1594 8.15993C25.8527 8.7066 25.6994 9.35993 25.6994 10.1199C25.6994 10.8799 25.8527 11.5466 26.1594 12.1199C26.4794 12.6933 26.8927 13.1333 27.3994 13.4399C27.9194 13.7333 28.4661 13.8799 29.0394 13.8799C29.6261 13.8799 30.1727 13.7333 30.6794 13.4399C31.1861 13.1466 31.5927 12.7199 31.8994 12.1599C32.2194 11.5866 32.3794 10.9199 32.3794 10.1599ZM47.7741 9.89993C47.7741 10.3133 47.7474 10.6866 47.6941 11.0199H39.2741C39.3407 11.8999 39.6674 12.6066 40.2541 13.1399C40.8407 13.6733 41.5607 13.9399 42.4141 13.9399C43.6407 13.9399 44.5074 13.4266 45.0141 12.3999H47.4741C47.1407 13.4133 46.5341 14.2466 45.6541 14.8999C44.7874 15.5399 43.7074 15.8599 42.4141 15.8599C41.3607 15.8599 40.4141 15.6266 39.5741 15.1599C38.7474 14.6799 38.0941 14.0133 37.6141 13.1599C37.1474 12.2933 36.9141 11.2933 36.9141 10.1599C36.9141 9.0266 37.1407 8.03326 37.5941 7.17993C38.0607 6.31326 38.7074 5.6466 39.5341 5.17993C40.3741 4.71326 41.3341 4.47993 42.4141 4.47993C43.4541 4.47993 44.3807 4.7066 45.1941 5.15993C46.0074 5.61326 46.6407 6.25326 47.0941 7.07993C47.5474 7.89326 47.7741 8.83326 47.7741 9.89993ZM45.3941 9.17993C45.3807 8.33993 45.0807 7.6666 44.4941 7.15993C43.9074 6.65326 43.1807 6.39993 42.3141 6.39993C41.5274 6.39993 40.8541 6.65326 40.2941 7.15993C39.7341 7.65326 39.4007 8.3266 39.2941 9.17993H45.3941ZM52.2978 6.25993C52.6312 5.69993 53.0712 5.2666 53.6178 4.95993C54.1778 4.63993 54.8378 4.47993 55.5978 4.47993V6.83993H55.0178C54.1245 6.83993 53.4445 7.0666 52.9778 7.51993C52.5245 7.97326 52.2978 8.75993 52.2978 9.87993V15.6799H50.0178V4.65993H52.2978V6.25993ZM67.6689 15.8599C66.6289 15.8599 65.6889 15.6266 64.8489 15.1599C64.0089 14.6799 63.3489 14.0133 62.8689 13.1599C62.3889 12.2933 62.1489 11.2933 62.1489 10.1599C62.1489 9.03993 62.3956 8.0466 62.8889 7.17993C63.3822 6.31326 64.0556 5.6466 64.9089 5.17993C65.7622 4.71326 66.7156 4.47993 67.7689 4.47993C68.8222 4.47993 69.7756 4.71326 70.6289 5.17993C71.4822 5.6466 72.1556 6.31326 72.6489 7.17993C73.1422 8.0466 73.3889 9.03993 73.3889 10.1599C73.3889 11.2799 73.1356 12.2733 72.6289 13.1399C72.1223 14.0066 71.4289 14.6799 70.5489 15.1599C69.6822 15.6266 68.7222 15.8599 67.6689 15.8599ZM67.6689 13.8799C68.2556 13.8799 68.8022 13.7399 69.3089 13.4599C69.8289 13.1799 70.2489 12.7599 70.5689 12.1999C70.8889 11.6399 71.0489 10.9599 71.0489 10.1599C71.0489 9.35993 70.8956 8.6866 70.5889 8.13993C70.2822 7.57993 69.8756 7.15993 69.3689 6.87993C68.8622 6.59993 68.3156 6.45993 67.7289 6.45993C67.1422 6.45993 66.5956 6.59993 66.0889 6.87993C65.5956 7.15993 65.2022 7.57993 64.9089 8.13993C64.6156 8.6866 64.4689 9.35993 64.4689 10.1599C64.4689 11.3466 64.7689 12.2666 65.3689 12.9199C65.9822 13.5599 66.7489 13.8799 67.6689 13.8799ZM79.9028 13.6399L83.0228 4.65993H85.4428L81.2428 15.6799H78.5228L74.3428 4.65993H76.7828L79.9028 13.6399ZM97.2663 9.89993C97.2663 10.3133 97.2396 10.6866 97.1863 11.0199H88.7663C88.8329 11.8999 89.1596 12.6066 89.7463 13.1399C90.3329 13.6733 91.0529 13.9399 91.9063 13.9399C93.1329 13.9399 93.9996 13.4266 94.5063 12.3999H96.9663C96.6329 13.4133 96.0263 14.2466 95.1463 14.8999C94.2796 15.5399 93.1996 15.8599 91.9063 15.8599C90.8529 15.8599 89.9063 15.6266 89.0663 15.1599C88.2396 14.6799 87.5863 14.0133 87.1063 13.1599C86.6396 12.2933 86.4063 11.2933 86.4063 10.1599C86.4063 9.0266 86.6329 8.03326 87.0863 7.17993C87.5529 6.31326 88.1996 5.6466 89.0263 5.17993C89.8663 4.71326 90.8263 4.47993 91.9063 4.47993C92.9463 4.47993 93.8729 4.7066 94.6863 5.15993C95.4996 5.61326 96.1329 6.25326 96.5863 7.07993C97.0396 7.89326 97.2663 8.83326 97.2663 9.89993ZM94.8863 9.17993C94.8729 8.33993 94.5729 7.6666 93.9863 7.15993C93.3996 6.65326 92.6729 6.39993 91.8063 6.39993C91.0196 6.39993 90.3463 6.65326 89.7863 7.15993C89.2263 7.65326 88.8929 8.3266 88.7863 9.17993H94.8863ZM101.79 6.25993C102.123 5.69993 102.563 5.2666 103.11 4.95993C103.67 4.63993 104.33 4.47993 105.09 4.47993V6.83993H104.51C103.617 6.83993 102.937 7.0666 102.47 7.51993C102.017 7.97326 101.79 8.75993 101.79 9.87993V15.6799H99.51V4.65993H101.79V6.25993ZM111.781 3.17993V1.09993H115.941V15.6799H113.641V3.17993H111.781ZM128.473 3.05993H121.773V7.03993C122.053 6.6666 122.467 6.35326 123.013 6.09993C123.573 5.8466 124.167 5.71993 124.793 5.71993C125.913 5.71993 126.82 5.95993 127.513 6.43993C128.22 6.91993 128.72 7.5266 129.013 8.25993C129.32 8.99326 129.473 9.7666 129.473 10.5799C129.473 11.5666 129.28 12.4466 128.893 13.2199C128.52 13.9799 127.953 14.5799 127.193 15.0199C126.447 15.4599 125.527 15.6799 124.433 15.6799C122.98 15.6799 121.813 15.3199 120.933 14.5999C120.053 13.8799 119.527 12.9266 119.353 11.7399H121.573C121.72 12.3666 122.047 12.8666 122.553 13.2399C123.06 13.5999 123.693 13.7799 124.453 13.7799C125.4 13.7799 126.107 13.4933 126.573 12.9199C127.053 12.3466 127.293 11.5866 127.293 10.6399C127.293 9.67993 127.053 8.9466 126.573 8.43993C126.093 7.91993 125.387 7.65993 124.453 7.65993C123.8 7.65993 123.247 7.8266 122.793 8.15993C122.353 8.47993 122.033 8.91993 121.833 9.47993H119.673V1.05993H128.473V3.05993ZM131.847 8.19993C131.847 5.89326 132.233 4.09326 133.007 2.79993C133.793 1.49326 135.14 0.839931 137.047 0.839931C138.953 0.839931 140.293 1.49326 141.067 2.79993C141.853 4.09326 142.247 5.89326 142.247 8.19993C142.247 10.5333 141.853 12.3599 141.067 13.6799C140.293 14.9866 138.953 15.6399 137.047 15.6399C135.14 15.6399 133.793 14.9866 133.007 13.6799C132.233 12.3599 131.847 10.5333 131.847 8.19993ZM140.007 8.19993C140.007 7.11993 139.933 6.2066 139.787 5.45993C139.653 4.71326 139.373 4.1066 138.947 3.63993C138.52 3.15993 137.887 2.91993 137.047 2.91993C136.207 2.91993 135.573 3.15993 135.147 3.63993C134.72 4.1066 134.433 4.71326 134.287 5.45993C134.153 6.2066 134.087 7.11993 134.087 8.19993C134.087 9.31993 134.153 10.2599 134.287 11.0199C134.42 11.7799 134.7 12.3933 135.127 12.8599C135.567 13.3266 136.207 13.5599 137.047 13.5599C137.887 13.5599 138.52 13.3266 138.947 12.8599C139.387 12.3933 139.673 11.7799 139.807 11.0199C139.94 10.2599 140.007 9.31993 140.007 8.19993ZM159.535 11.7199C159.535 12.3866 159.368 13.0133 159.035 13.5999C158.715 14.1866 158.235 14.6799 157.595 15.0799C156.968 15.4799 156.221 15.7199 155.355 15.7999V17.4199H154.055V15.7999C152.801 15.6799 151.788 15.2866 151.015 14.6199C150.241 13.9533 149.855 13.0733 149.855 11.9799H152.295C152.335 12.4999 152.501 12.9333 152.795 13.2799C153.088 13.6133 153.508 13.8266 154.055 13.9199V9.51993C153.161 9.29326 152.435 9.0666 151.875 8.83993C151.315 8.59993 150.835 8.2266 150.435 7.71993C150.048 7.21326 149.855 6.51993 149.855 5.63993C149.855 4.53326 150.241 3.61993 151.015 2.89993C151.788 2.1666 152.801 1.73993 154.055 1.61993V-6.91414e-05H155.355V1.61993C156.528 1.7266 157.468 2.09993 158.175 2.73993C158.895 3.3666 159.301 4.23326 159.395 5.33993H156.955C156.915 4.9266 156.755 4.55993 156.475 4.23993C156.195 3.9066 155.821 3.67993 155.355 3.55993V7.87993C156.248 8.09326 156.975 8.31993 157.535 8.55993C158.095 8.7866 158.568 9.15326 158.955 9.65993C159.341 10.1533 159.535 10.8399 159.535 11.7199ZM152.175 5.51993C152.175 6.0666 152.335 6.49326 152.655 6.79993C152.988 7.1066 153.455 7.35326 154.055 7.53993V3.49993C153.481 3.5666 153.021 3.77326 152.675 4.11993C152.341 4.4666 152.175 4.93326 152.175 5.51993ZM155.355 13.9199C155.941 13.8266 156.401 13.5933 156.735 13.2199C157.068 12.8333 157.235 12.3733 157.235 11.8399C157.235 11.3066 157.068 10.8933 156.735 10.5999C156.415 10.2933 155.955 10.0466 155.355 9.85993V13.9199Z" fill="#898989"/>
</svg>
