<svg width="175" height="31" viewBox="0 0 175 31" fill="none" xmlns="http://www.w3.org/2000/svg">
<path d="M1.32502 19.725C2.92502 18.3917 4.20002 17.2834 5.15002 16.4C6.10002 15.5 6.89169 14.5667 7.52503 13.6C8.15836 12.6334 8.47502 11.6834 8.47502 10.75C8.47502 9.90005 8.27502 9.23338 7.87503 8.75005C7.47502 8.26671 6.85836 8.02505 6.02503 8.02505C5.19169 8.02505 4.55002 8.30838 4.10002 8.87505C3.65002 9.42505 3.41669 10.1834 3.40002 11.15H2.45012e-05C0.0666911 9.15005 0.658358 7.63338 1.77502 6.60005C2.90836 5.56671 4.34169 5.05005 6.07502 5.05005C7.97502 5.05005 9.43336 5.55838 10.45 6.57505C11.4667 7.57505 11.975 8.90005 11.975 10.55C11.975 11.85 11.625 13.0917 10.925 14.275C10.225 15.4584 9.42502 16.4917 8.52502 17.375C7.62503 18.2417 6.45003 19.2917 5.00002 20.525H12.375V23.425H0.0250245V20.825L1.32502 19.725ZM14.4305 20.125V17.375L22.6055 5.67505H26.6805V17.075H28.8805V20.125H26.6805V23.675H23.1805V20.125H14.4305ZM23.4055 9.42505L18.2805 17.075H23.4055V9.42505ZM46.8408 4.81606e-05L40.0908 28.2H36.6658L43.4158 4.81606e-05H46.8408ZM66.7811 8.10005L60.1311 23.675H56.5811L63.2811 8.50005H54.7311V5.50005H66.7811V8.10005ZM81.2594 23.85C80.0427 23.85 78.9427 23.6417 77.9594 23.225C76.9927 22.8084 76.2261 22.2084 75.6594 21.425C75.0927 20.6417 74.8011 19.7167 74.7844 18.65H78.5344C78.5844 19.3667 78.8344 19.9334 79.2844 20.35C79.7511 20.7667 80.3844 20.975 81.1844 20.975C82.0011 20.975 82.6427 20.7834 83.1094 20.4C83.5761 20 83.8094 19.4834 83.8094 18.85C83.8094 18.3334 83.6511 17.9084 83.3344 17.575C83.0177 17.2417 82.6177 16.9834 82.1344 16.8C81.6677 16.6 81.0177 16.3834 80.1844 16.15C79.0511 15.8167 78.1261 15.4917 77.4094 15.175C76.7094 14.8417 76.1011 14.35 75.5844 13.7C75.0844 13.0334 74.8344 12.15 74.8344 11.05C74.8344 10.0167 75.0927 9.11671 75.6094 8.35005C76.1261 7.58338 76.8511 7.00005 77.7844 6.60005C78.7177 6.18338 79.7844 5.97505 80.9844 5.97505C82.7844 5.97505 84.2427 6.41672 85.3594 7.30005C86.4927 8.16671 87.1177 9.38338 87.2344 10.95H83.3844C83.3511 10.35 83.0927 9.85838 82.6094 9.47505C82.1427 9.07505 81.5177 8.87505 80.7344 8.87505C80.0511 8.87505 79.5011 9.05005 79.0844 9.40005C78.6844 9.75005 78.4844 10.2584 78.4844 10.925C78.4844 11.3917 78.6344 11.7834 78.9344 12.1C79.2511 12.4 79.6344 12.65 80.0844 12.85C80.5511 13.0334 81.2011 13.25 82.0344 13.5C83.1677 13.8334 84.0927 14.1667 84.8094 14.5C85.5261 14.8334 86.1427 15.3334 86.6594 16C87.1761 16.6667 87.4344 17.5417 87.4344 18.625C87.4344 19.5584 87.1927 20.425 86.7094 21.225C86.2261 22.025 85.5177 22.6667 84.5844 23.15C83.6511 23.6167 82.5427 23.85 81.2594 23.85ZM103.544 9.82505V23.675H100.019V21.925C99.5688 22.525 98.9771 23 98.2438 23.35C97.5271 23.6834 96.7438 23.85 95.8938 23.85C94.8104 23.85 93.8521 23.625 93.0188 23.175C92.1854 22.7084 91.5271 22.0334 91.0438 21.15C90.5771 20.25 90.3438 19.1834 90.3438 17.95V9.82505H93.8438V17.45C93.8438 18.55 94.1188 19.4 94.6688 20C95.2188 20.5834 95.9688 20.875 96.9188 20.875C97.8854 20.875 98.6438 20.5834 99.1938 20C99.7438 19.4 100.019 18.55 100.019 17.45V9.82505H103.544ZM110.497 11.825C110.947 11.1917 111.564 10.6667 112.347 10.25C113.147 9.81672 114.055 9.60005 115.072 9.60005C116.255 9.60005 117.322 9.89172 118.272 10.475C119.239 11.0584 119.997 11.8917 120.547 12.975C121.114 14.0417 121.397 15.2834 121.397 16.7C121.397 18.1167 121.114 19.375 120.547 20.475C119.997 21.5584 119.239 22.4 118.272 23C117.322 23.6 116.255 23.9 115.072 23.9C114.055 23.9 113.155 23.6917 112.372 23.275C111.605 22.8584 110.98 22.3334 110.497 21.7V30.275H106.997V9.82505H110.497V11.825ZM117.822 16.7C117.822 15.8667 117.647 15.15 117.297 14.55C116.964 13.9334 116.514 13.4667 115.947 13.15C115.397 12.8334 114.797 12.675 114.147 12.675C113.514 12.675 112.914 12.8417 112.347 13.175C111.797 13.4917 111.347 13.9584 110.997 14.575C110.664 15.1917 110.497 15.9167 110.497 16.75C110.497 17.5834 110.664 18.3084 110.997 18.925C111.347 19.5417 111.797 20.0167 112.347 20.35C112.914 20.6667 113.514 20.825 114.147 20.825C114.797 20.825 115.397 20.6584 115.947 20.325C116.514 19.9917 116.964 19.5167 117.297 18.9C117.647 18.2834 117.822 17.55 117.822 16.7ZM127.44 11.825C127.89 11.1917 128.507 10.6667 129.29 10.25C130.09 9.81672 130.999 9.60005 132.015 9.60005C133.199 9.60005 134.265 9.89172 135.215 10.475C136.182 11.0584 136.94 11.8917 137.49 12.975C138.057 14.0417 138.34 15.2834 138.34 16.7C138.34 18.1167 138.057 19.375 137.49 20.475C136.94 21.5584 136.182 22.4 135.215 23C134.265 23.6 133.199 23.9 132.015 23.9C130.999 23.9 130.099 23.6917 129.315 23.275C128.549 22.8584 127.924 22.3334 127.44 21.7V30.275H123.94V9.82505H127.44V11.825ZM134.765 16.7C134.765 15.8667 134.59 15.15 134.24 14.55C133.907 13.9334 133.457 13.4667 132.89 13.15C132.34 12.8334 131.74 12.675 131.09 12.675C130.457 12.675 129.857 12.8417 129.29 13.175C128.74 13.4917 128.29 13.9584 127.94 14.575C127.607 15.1917 127.44 15.9167 127.44 16.75C127.44 17.5834 127.607 18.3084 127.94 18.925C128.29 19.5417 128.74 20.0167 129.29 20.35C129.857 20.6667 130.457 20.825 131.09 20.825C131.74 20.825 132.34 20.6584 132.89 20.325C133.457 19.9917 133.907 19.5167 134.24 18.9C134.59 18.2834 134.765 17.55 134.765 16.7ZM147.034 23.9C145.7 23.9 144.5 23.6084 143.434 23.025C142.367 22.425 141.525 21.5834 140.909 20.5C140.309 19.4167 140.009 18.1667 140.009 16.75C140.009 15.3334 140.317 14.0834 140.934 13C141.567 11.9167 142.425 11.0834 143.509 10.5C144.592 9.90005 145.8 9.60005 147.134 9.60005C148.467 9.60005 149.675 9.90005 150.759 10.5C151.842 11.0834 152.692 11.9167 153.309 13C153.942 14.0834 154.259 15.3334 154.259 16.75C154.259 18.1667 153.934 19.4167 153.284 20.5C152.65 21.5834 151.784 22.425 150.684 23.025C149.6 23.6084 148.384 23.9 147.034 23.9ZM147.034 20.85C147.667 20.85 148.259 20.7 148.809 20.4C149.375 20.0834 149.825 19.6167 150.159 19C150.492 18.3834 150.659 17.6334 150.659 16.75C150.659 15.4334 150.309 14.425 149.609 13.725C148.925 13.0084 148.084 12.65 147.084 12.65C146.084 12.65 145.242 13.0084 144.559 13.725C143.892 14.425 143.559 15.4334 143.559 16.75C143.559 18.0667 143.884 19.0834 144.534 19.8C145.2 20.5 146.034 20.85 147.034 20.85ZM160.326 11.975C160.776 11.2417 161.36 10.6667 162.076 10.25C162.81 9.83338 163.643 9.62505 164.576 9.62505V13.3H163.651C162.551 13.3 161.718 13.5584 161.151 14.075C160.601 14.5917 160.326 15.4917 160.326 16.775V23.675H156.826V9.82505H160.326V11.975ZM171.009 12.7V19.4C171.009 19.8667 171.117 20.2084 171.334 20.425C171.567 20.625 171.95 20.725 172.484 20.725H174.109V23.675H171.909C168.959 23.675 167.484 22.2417 167.484 19.375V12.7H165.834V9.82505H167.484V6.40005H171.009V9.82505H174.109V12.7H171.009Z" fill="#242424"/>
</svg>
