<svg width="256" height="27" viewBox="0 0 256 27" fill="none" xmlns="http://www.w3.org/2000/svg">
<path d="M24.5 2.1501L19.625 19.6001H15.5L12.225 7.1751L8.80001 19.6001L4.70001 19.6251L1.22506e-05 2.1501H3.75001L6.82501 15.7001L10.375 2.1501H14.275L17.625 15.6251L20.725 2.1501H24.5ZM25.8854 12.6251C25.8854 11.2251 26.1604 9.98343 26.7104 8.9001C27.277 7.81676 28.0354 6.98343 28.9854 6.4001C29.952 5.81676 31.027 5.5251 32.2104 5.5251C33.2437 5.5251 34.1437 5.73343 34.9104 6.1501C35.6937 6.56676 36.3187 7.09176 36.7854 7.7251V5.7501H40.3104V19.6001H36.7854V17.5751C36.3354 18.2251 35.7104 18.7668 34.9104 19.2001C34.127 19.6168 33.2187 19.8251 32.1854 19.8251C31.0187 19.8251 29.952 19.5251 28.9854 18.9251C28.0354 18.3251 27.277 17.4834 26.7104 16.4001C26.1604 15.3001 25.8854 14.0418 25.8854 12.6251ZM36.7854 12.6751C36.7854 11.8251 36.6187 11.1001 36.2854 10.5001C35.952 9.88343 35.502 9.41676 34.9354 9.1001C34.3687 8.76676 33.7604 8.6001 33.1104 8.6001C32.4604 8.6001 31.8604 8.75843 31.3104 9.0751C30.7604 9.39176 30.3104 9.85843 29.9604 10.4751C29.627 11.0751 29.4604 11.7918 29.4604 12.6251C29.4604 13.4584 29.627 14.1918 29.9604 14.8251C30.3104 15.4418 30.7604 15.9168 31.3104 16.2501C31.877 16.5834 32.477 16.7501 33.1104 16.7501C33.7604 16.7501 34.3687 16.5918 34.9354 16.2751C35.502 15.9418 35.952 15.4751 36.2854 14.8751C36.6187 14.2584 36.7854 13.5251 36.7854 12.6751ZM47.2287 7.9001C47.6787 7.16676 48.2621 6.59176 48.9787 6.1751C49.7121 5.75843 50.5454 5.5501 51.4787 5.5501V9.2251H50.5537C49.4537 9.2251 48.6204 9.48343 48.0537 10.0001C47.5037 10.5168 47.2287 11.4168 47.2287 12.7001V19.6001H43.7287V5.7501H47.2287V7.9001ZM57.3361 7.9001C57.7861 7.16676 58.3695 6.59176 59.0861 6.1751C59.8195 5.75843 60.6528 5.5501 61.5861 5.5501V9.2251H60.6611C59.5611 9.2251 58.7278 9.48343 58.1611 10.0001C57.6111 10.5168 57.3361 11.4168 57.3361 12.7001V19.6001H53.8361V5.7501H57.3361V7.9001ZM63.0436 12.6251C63.0436 11.2251 63.3186 9.98343 63.8686 8.9001C64.4352 7.81676 65.1936 6.98343 66.1436 6.4001C67.1102 5.81676 68.1852 5.5251 69.3686 5.5251C70.4019 5.5251 71.3019 5.73343 72.0686 6.1501C72.8519 6.56676 73.4769 7.09176 73.9436 7.7251V5.7501H77.4686V19.6001H73.9436V17.5751C73.4936 18.2251 72.8686 18.7668 72.0686 19.2001C71.2852 19.6168 70.3769 19.8251 69.3436 19.8251C68.1769 19.8251 67.1102 19.5251 66.1436 18.9251C65.1936 18.3251 64.4352 17.4834 63.8686 16.4001C63.3186 15.3001 63.0436 14.0418 63.0436 12.6251ZM73.9436 12.6751C73.9436 11.8251 73.7769 11.1001 73.4436 10.5001C73.1102 9.88343 72.6602 9.41676 72.0936 9.1001C71.5269 8.76676 70.9186 8.6001 70.2686 8.6001C69.6186 8.6001 69.0186 8.75843 68.4686 9.0751C67.9186 9.39176 67.4686 9.85843 67.1186 10.4751C66.7852 11.0751 66.6186 11.7918 66.6186 12.6251C66.6186 13.4584 66.7852 14.1918 67.1186 14.8251C67.4686 15.4418 67.9186 15.9168 68.4686 16.2501C69.0352 16.5834 69.6352 16.7501 70.2686 16.7501C70.9186 16.7501 71.5269 16.5918 72.0936 16.2751C72.6602 15.9418 73.1102 15.4751 73.4436 14.8751C73.7769 14.2584 73.9436 13.5251 73.9436 12.6751ZM88.5619 5.5501C90.2119 5.5501 91.5453 6.0751 92.5619 7.1251C93.5786 8.15843 94.0869 9.60843 94.0869 11.4751V19.6001H90.5869V11.9501C90.5869 10.8501 90.3119 10.0084 89.7619 9.4251C89.2119 8.8251 88.4619 8.5251 87.5119 8.5251C86.5453 8.5251 85.7786 8.8251 85.2119 9.4251C84.6619 10.0084 84.3869 10.8501 84.3869 11.9501V19.6001H80.8869V5.7501H84.3869V7.4751C84.8536 6.8751 85.4453 6.40843 86.1619 6.0751C86.8953 5.7251 87.6953 5.5501 88.5619 5.5501ZM101.49 8.6251V15.3251C101.49 15.7918 101.599 16.1334 101.815 16.3501C102.049 16.5501 102.432 16.6501 102.965 16.6501H104.59V19.6001H102.39C99.4402 19.6001 97.9652 18.1668 97.9652 15.3001V8.6251H96.3152V5.7501H97.9652V2.3251H101.49V5.7501H104.59V8.6251H101.49ZM120.358 5.7501L111.783 26.1501H108.058L111.058 19.2501L105.508 5.7501H109.433L113.008 15.4251L116.633 5.7501H120.358ZM140.926 7.5501C140.926 8.48343 140.701 9.35843 140.251 10.1751C139.818 10.9918 139.126 11.6501 138.176 12.1501C137.243 12.6501 136.06 12.9001 134.626 12.9001H131.701V19.6001H128.201V2.1501H134.626C135.976 2.1501 137.126 2.38343 138.076 2.8501C139.026 3.31676 139.735 3.95843 140.201 4.7751C140.685 5.59176 140.926 6.51676 140.926 7.5501ZM134.476 10.0751C135.443 10.0751 136.16 9.85843 136.626 9.4251C137.093 8.9751 137.326 8.3501 137.326 7.5501C137.326 5.8501 136.376 5.0001 134.476 5.0001H131.701V10.0751H134.476ZM146.911 7.9001C147.361 7.16676 147.945 6.59176 148.661 6.1751C149.395 5.75843 150.228 5.5501 151.161 5.5501V9.2251H150.236C149.136 9.2251 148.303 9.48343 147.736 10.0001C147.186 10.5168 146.911 11.4168 146.911 12.7001V19.6001H143.411V5.7501H146.911V7.9001ZM159.669 19.8251C158.335 19.8251 157.135 19.5334 156.069 18.9501C155.002 18.3501 154.16 17.5084 153.544 16.4251C152.944 15.3418 152.644 14.0918 152.644 12.6751C152.644 11.2584 152.952 10.0084 153.569 8.9251C154.202 7.84176 155.06 7.00843 156.144 6.4251C157.227 5.8251 158.435 5.5251 159.769 5.5251C161.102 5.5251 162.31 5.8251 163.394 6.4251C164.477 7.00843 165.327 7.84176 165.944 8.9251C166.577 10.0084 166.894 11.2584 166.894 12.6751C166.894 14.0918 166.569 15.3418 165.919 16.4251C165.285 17.5084 164.419 18.3501 163.319 18.9501C162.235 19.5334 161.019 19.8251 159.669 19.8251ZM159.669 16.7751C160.302 16.7751 160.894 16.6251 161.444 16.3251C162.01 16.0084 162.46 15.5418 162.794 14.9251C163.127 14.3084 163.294 13.5584 163.294 12.6751C163.294 11.3584 162.944 10.3501 162.244 9.6501C161.56 8.93343 160.719 8.5751 159.719 8.5751C158.719 8.5751 157.877 8.93343 157.194 9.6501C156.527 10.3501 156.194 11.3584 156.194 12.6751C156.194 13.9918 156.519 15.0084 157.169 15.7251C157.835 16.4251 158.669 16.7751 159.669 16.7751ZM173.536 8.6251V15.3251C173.536 15.7918 173.644 16.1334 173.861 16.3501C174.094 16.5501 174.478 16.6501 175.011 16.6501H176.636V19.6001H174.436C171.486 19.6001 170.011 18.1668 170.011 15.3001V8.6251H168.361V5.7501H170.011V2.3251H173.536V5.7501H176.636V8.6251H173.536ZM192.029 12.3751C192.029 12.8751 191.995 13.3251 191.929 13.7251H181.804C181.887 14.7251 182.237 15.5084 182.854 16.0751C183.47 16.6418 184.229 16.9251 185.129 16.9251C186.429 16.9251 187.354 16.3668 187.904 15.2501H191.679C191.279 16.5834 190.512 17.6834 189.379 18.5501C188.245 19.4001 186.854 19.8251 185.204 19.8251C183.87 19.8251 182.67 19.5334 181.604 18.9501C180.554 18.3501 179.729 17.5084 179.129 16.4251C178.545 15.3418 178.254 14.0918 178.254 12.6751C178.254 11.2418 178.545 9.98343 179.129 8.9001C179.712 7.81676 180.529 6.98343 181.579 6.4001C182.629 5.81676 183.837 5.5251 185.204 5.5251C186.52 5.5251 187.695 5.80843 188.729 6.3751C189.779 6.94176 190.587 7.7501 191.154 8.8001C191.737 9.83343 192.029 11.0251 192.029 12.3751ZM188.404 11.3751C188.387 10.4751 188.062 9.75843 187.429 9.2251C186.795 8.6751 186.02 8.4001 185.104 8.4001C184.237 8.4001 183.504 8.66676 182.904 9.2001C182.32 9.71676 181.962 10.4418 181.829 11.3751H188.404ZM193.683 12.6751C193.683 11.2418 193.975 9.99176 194.558 8.9251C195.142 7.84176 195.95 7.00843 196.983 6.4251C198.017 5.8251 199.2 5.5251 200.533 5.5251C202.25 5.5251 203.667 5.95843 204.783 6.8251C205.917 7.6751 206.675 8.8751 207.058 10.4251H203.283C203.083 9.8251 202.742 9.35843 202.258 9.0251C201.792 8.6751 201.208 8.5001 200.508 8.5001C199.508 8.5001 198.717 8.86676 198.133 9.6001C197.55 10.3168 197.258 11.3418 197.258 12.6751C197.258 13.9918 197.55 15.0168 198.133 15.7501C198.717 16.4668 199.508 16.8251 200.508 16.8251C201.925 16.8251 202.85 16.1918 203.283 14.9251H207.058C206.675 16.4251 205.917 17.6168 204.783 18.5001C203.65 19.3834 202.233 19.8251 200.533 19.8251C199.2 19.8251 198.017 19.5334 196.983 18.9501C195.95 18.3501 195.142 17.5168 194.558 16.4501C193.975 15.3668 193.683 14.1084 193.683 12.6751ZM213.697 8.6251V15.3251C213.697 15.7918 213.806 16.1334 214.022 16.3501C214.256 16.5501 214.639 16.6501 215.172 16.6501H216.797V19.6001H214.597C211.647 19.6001 210.172 18.1668 210.172 15.3001V8.6251H208.522V5.7501H210.172V2.3251H213.697V5.7501H216.797V8.6251H213.697ZM221.09 4.1001C220.473 4.1001 219.956 3.90843 219.54 3.5251C219.14 3.1251 218.94 2.63343 218.94 2.0501C218.94 1.46676 219.14 0.98343 219.54 0.600096C219.956 0.200097 220.473 9.66787e-05 221.09 9.66787e-05C221.706 9.66787e-05 222.215 0.200097 222.615 0.600096C223.031 0.98343 223.24 1.46676 223.24 2.0501C223.24 2.63343 223.031 3.1251 222.615 3.5251C222.215 3.90843 221.706 4.1001 221.09 4.1001ZM222.815 5.7501V19.6001H219.315V5.7501H222.815ZM232.423 19.8251C231.089 19.8251 229.889 19.5334 228.823 18.9501C227.756 18.3501 226.914 17.5084 226.298 16.4251C225.698 15.3418 225.398 14.0918 225.398 12.6751C225.398 11.2584 225.706 10.0084 226.323 8.9251C226.956 7.84176 227.814 7.00843 228.898 6.4251C229.981 5.8251 231.189 5.5251 232.523 5.5251C233.856 5.5251 235.064 5.8251 236.148 6.4251C237.231 7.00843 238.081 7.84176 238.698 8.9251C239.331 10.0084 239.648 11.2584 239.648 12.6751C239.648 14.0918 239.323 15.3418 238.673 16.4251C238.039 17.5084 237.173 18.3501 236.073 18.9501C234.989 19.5334 233.773 19.8251 232.423 19.8251ZM232.423 16.7751C233.056 16.7751 233.648 16.6251 234.198 16.3251C234.764 16.0084 235.214 15.5418 235.548 14.9251C235.881 14.3084 236.048 13.5584 236.048 12.6751C236.048 11.3584 235.698 10.3501 234.998 9.6501C234.314 8.93343 233.473 8.5751 232.473 8.5751C231.473 8.5751 230.631 8.93343 229.948 9.6501C229.281 10.3501 228.948 11.3584 228.948 12.6751C228.948 13.9918 229.273 15.0084 229.923 15.7251C230.589 16.4251 231.423 16.7751 232.423 16.7751ZM249.89 5.5501C251.54 5.5501 252.873 6.0751 253.89 7.1251C254.907 8.15843 255.415 9.60843 255.415 11.4751V19.6001H251.915V11.9501C251.915 10.8501 251.64 10.0084 251.09 9.4251C250.54 8.8251 249.79 8.5251 248.84 8.5251C247.873 8.5251 247.107 8.8251 246.54 9.4251C245.99 10.0084 245.715 10.8501 245.715 11.9501V19.6001H242.215V5.7501H245.715V7.4751C246.182 6.8751 246.773 6.40843 247.49 6.0751C248.223 5.7251 249.023 5.5501 249.89 5.5501Z" fill="#242424"/>
</svg>
