<svg width="124" height="21" viewBox="0 0 124 21" fill="none" xmlns="http://www.w3.org/2000/svg">
<path d="M7.10001 15.0199C5.80668 15.0199 4.61334 14.7199 3.52001 14.1199C2.44001 13.5065 1.58001 12.6599 0.94001 11.5799C0.313343 10.4865 9.77516e-06 9.25988 9.77516e-06 7.89988C9.77516e-06 6.53988 0.313343 5.31988 0.94001 4.23988C1.58001 3.15988 2.44001 2.31988 3.52001 1.71988C4.61334 1.10655 5.80668 0.799882 7.10001 0.799882C8.40668 0.799882 9.60001 1.10655 10.68 1.71988C11.7733 2.31988 12.6333 3.15988 13.26 4.23988C13.8867 5.31988 14.2 6.53988 14.2 7.89988C14.2 9.25988 13.8867 10.4865 13.26 11.5799C12.6333 12.6599 11.7733 13.5065 10.68 14.1199C9.60001 14.7199 8.40668 15.0199 7.10001 15.0199ZM7.10001 13.0399C8.02001 13.0399 8.84001 12.8332 9.56001 12.4199C10.28 11.9932 10.84 11.3932 11.24 10.6199C11.6533 9.83322 11.86 8.92655 11.86 7.89988C11.86 6.87322 11.6533 5.97322 11.24 5.19988C10.84 4.42655 10.28 3.83322 9.56001 3.41988C8.84001 3.00655 8.02001 2.79988 7.10001 2.79988C6.18001 2.79988 5.36001 3.00655 4.64001 3.41988C3.92001 3.83322 3.35334 4.42655 2.94001 5.19988C2.54001 5.97322 2.34001 6.87322 2.34001 7.89988C2.34001 8.92655 2.54001 9.83322 2.94001 10.6199C3.35334 11.3932 3.92001 11.9932 4.64001 12.4199C5.36001 12.8332 6.18001 13.0399 7.10001 13.0399ZM20.7036 12.8399L23.8236 3.85988H26.2436L22.0436 14.8799H19.3236L15.1436 3.85988H17.5836L20.7036 12.8399ZM38.067 9.09988C38.067 9.51322 38.0404 9.88655 37.987 10.2199H29.567C29.6337 11.0999 29.9604 11.8065 30.547 12.3399C31.1337 12.8732 31.8537 13.1399 32.707 13.1399C33.9337 13.1399 34.8004 12.6265 35.307 11.5999H37.767C37.4337 12.6132 36.827 13.4465 35.947 14.0999C35.0804 14.7399 34.0004 15.0599 32.707 15.0599C31.6537 15.0599 30.707 14.8265 29.867 14.3599C29.0404 13.8799 28.387 13.2132 27.907 12.3599C27.4404 11.4932 27.207 10.4932 27.207 9.35988C27.207 8.22655 27.4337 7.23322 27.887 6.37988C28.3537 5.51322 29.0004 4.84655 29.827 4.37988C30.667 3.91322 31.627 3.67988 32.707 3.67988C33.747 3.67988 34.6737 3.90655 35.487 4.35988C36.3004 4.81322 36.9337 5.45322 37.387 6.27988C37.8404 7.09322 38.067 8.03322 38.067 9.09988ZM35.687 8.37988C35.6737 7.53988 35.3737 6.86655 34.787 6.35988C34.2004 5.85322 33.4737 5.59988 32.607 5.59988C31.8204 5.59988 31.147 5.85322 30.587 6.35988C30.027 6.85322 29.6937 7.52655 29.587 8.37988H35.687ZM42.5908 5.45988C42.9241 4.89988 43.3641 4.46655 43.9108 4.15988C44.4708 3.83988 45.1308 3.67988 45.8908 3.67988V6.03988H45.3108C44.4175 6.03988 43.7375 6.26655 43.2708 6.71988C42.8175 7.17322 42.5908 7.95988 42.5908 9.07988V14.8799H40.3108V3.85988H42.5908V5.45988ZM54.1419 11.7799C55.4219 10.6732 56.4286 9.76655 57.1619 9.05988C57.9086 8.33988 58.5286 7.59322 59.0219 6.81988C59.5152 6.04655 59.7619 5.27322 59.7619 4.49988C59.7619 3.69988 59.5686 3.07322 59.1819 2.61988C58.8086 2.16655 58.2152 1.93988 57.4019 1.93988C56.6152 1.93988 56.0019 2.19322 55.5619 2.69988C55.1352 3.19322 54.9086 3.85988 54.8819 4.69988H52.6819C52.7219 3.17988 53.1752 2.01988 54.0419 1.21988C54.9219 0.406549 56.0352 -0.00011754 57.3819 -0.00011754C58.8352 -0.00011754 59.9686 0.399882 60.7819 1.19988C61.6086 1.99988 62.0219 3.06655 62.0219 4.39988C62.0219 5.35988 61.7752 6.28655 61.2819 7.17988C60.8019 8.05988 60.2219 8.85322 59.5419 9.55988C58.8752 10.2532 58.0219 11.0599 56.9819 11.9799L56.0819 12.7799H62.4219V14.6799H52.7019V13.0199L54.1419 11.7799ZM79.8402 3.85988L73.0802 20.0599H70.7202L72.9602 14.6999L68.6202 3.85988H71.1602L74.2602 12.2599L77.4802 3.85988H79.8402ZM91.6608 9.09988C91.6608 9.51322 91.6341 9.88655 91.5808 10.2199H83.1608C83.2275 11.0999 83.5541 11.8065 84.1408 12.3399C84.7275 12.8732 85.4475 13.1399 86.3008 13.1399C87.5275 13.1399 88.3941 12.6265 88.9008 11.5999H91.3608C91.0275 12.6132 90.4208 13.4465 89.5408 14.0999C88.6741 14.7399 87.5941 15.0599 86.3008 15.0599C85.2475 15.0599 84.3008 14.8265 83.4608 14.3599C82.6341 13.8799 81.9808 13.2132 81.5008 12.3599C81.0341 11.4932 80.8008 10.4932 80.8008 9.35988C80.8008 8.22655 81.0275 7.23322 81.4808 6.37988C81.9475 5.51322 82.5941 4.84655 83.4208 4.37988C84.2608 3.91322 85.2208 3.67988 86.3008 3.67988C87.3408 3.67988 88.2675 3.90655 89.0808 4.35988C89.8941 4.81322 90.5275 5.45322 90.9808 6.27988C91.4341 7.09322 91.6608 8.03322 91.6608 9.09988ZM89.2808 8.37988C89.2675 7.53988 88.9675 6.86655 88.3808 6.35988C87.7941 5.85322 87.0675 5.59988 86.2008 5.59988C85.4141 5.59988 84.7408 5.85322 84.1808 6.35988C83.6208 6.85322 83.2875 7.52655 83.1808 8.37988H89.2808ZM93.1445 9.31988C93.1445 8.21322 93.3712 7.23322 93.8245 6.37988C94.2912 5.52655 94.9179 4.86655 95.7045 4.39988C96.5045 3.91988 97.3845 3.67988 98.3445 3.67988C99.2112 3.67988 99.9645 3.85322 100.605 4.19988C101.258 4.53322 101.778 4.95322 102.165 5.45988V3.85988H104.465V14.8799H102.165V13.2399C101.778 13.7599 101.251 14.1932 100.585 14.5399C99.9179 14.8865 99.1579 15.0599 98.3045 15.0599C97.3579 15.0599 96.4912 14.8199 95.7045 14.3399C94.9179 13.8465 94.2912 13.1665 93.8245 12.2999C93.3712 11.4199 93.1445 10.4265 93.1445 9.31988ZM102.165 9.35988C102.165 8.59988 102.005 7.93988 101.685 7.37988C101.378 6.81988 100.971 6.39322 100.465 6.09988C99.9579 5.80655 99.4112 5.65988 98.8245 5.65988C98.2379 5.65988 97.6912 5.80655 97.1845 6.09988C96.6779 6.37988 96.2645 6.79988 95.9445 7.35988C95.6379 7.90655 95.4845 8.55988 95.4845 9.31988C95.4845 10.0799 95.6379 10.7465 95.9445 11.3199C96.2645 11.8932 96.6779 12.3332 97.1845 12.6399C97.7045 12.9332 98.2512 13.0799 98.8245 13.0799C99.4112 13.0799 99.9579 12.9332 100.465 12.6399C100.971 12.3465 101.378 11.9199 101.685 11.3599C102.005 10.7865 102.165 10.1199 102.165 9.35988ZM109.739 5.45988C110.073 4.89988 110.513 4.46655 111.059 4.15988C111.619 3.83988 112.279 3.67988 113.039 3.67988V6.03988H112.459C111.566 6.03988 110.886 6.26655 110.419 6.71988C109.966 7.17322 109.739 7.95988 109.739 9.07988V14.8799H107.459V3.85988H109.739V5.45988ZM119.135 15.0599C118.268 15.0599 117.488 14.9065 116.795 14.5999C116.115 14.2799 115.575 13.8532 115.175 13.3199C114.775 12.7732 114.562 12.1665 114.535 11.4999H116.895C116.935 11.9665 117.155 12.3599 117.555 12.6799C117.968 12.9865 118.482 13.1399 119.095 13.1399C119.735 13.1399 120.228 13.0199 120.575 12.7799C120.935 12.5265 121.115 12.2065 121.115 11.8199C121.115 11.4065 120.915 11.0999 120.515 10.8999C120.128 10.6999 119.508 10.4799 118.655 10.2399C117.828 10.0132 117.155 9.79322 116.635 9.57988C116.115 9.36655 115.662 9.03988 115.275 8.59988C114.902 8.15988 114.715 7.57988 114.715 6.85988C114.715 6.27322 114.888 5.73988 115.235 5.25988C115.582 4.76655 116.075 4.37988 116.715 4.09988C117.368 3.81988 118.115 3.67988 118.955 3.67988C120.208 3.67988 121.215 3.99988 121.975 4.63988C122.748 5.26655 123.162 6.12655 123.215 7.21988H120.935C120.895 6.72655 120.695 6.33322 120.335 6.03988C119.975 5.74655 119.488 5.59988 118.875 5.59988C118.275 5.59988 117.815 5.71322 117.495 5.93988C117.175 6.16655 117.015 6.46655 117.015 6.83988C117.015 7.13322 117.122 7.37988 117.335 7.57988C117.548 7.77988 117.808 7.93988 118.115 8.05988C118.422 8.16655 118.875 8.30655 119.475 8.47988C120.275 8.69322 120.928 8.91322 121.435 9.13988C121.955 9.35322 122.402 9.67322 122.775 10.0999C123.148 10.5265 123.342 11.0932 123.355 11.7999C123.355 12.4265 123.182 12.9865 122.835 13.4799C122.488 13.9732 121.995 14.3599 121.355 14.6399C120.728 14.9199 119.988 15.0599 119.135 15.0599Z" fill="#898989"/>
</svg>
