<svg width="77" height="12" viewBox="0 0 77 12" fill="none" xmlns="http://www.w3.org/2000/svg">
<path d="M6.8 5.632C7.45066 5.77066 7.97333 6.096 8.368 6.608C8.76266 7.10933 8.96 7.68533 8.96 8.336C8.96 9.27466 8.62933 10.0213 7.968 10.576C7.31733 11.12 6.40533 11.392 5.232 11.392H-4.35114e-06V0.159998H5.056C6.19733 0.159998 7.088 0.421331 7.728 0.943997C8.37866 1.46666 8.704 2.176 8.704 3.072C8.704 3.73333 8.528 4.28266 8.176 4.72C7.83466 5.15733 7.376 5.46133 6.8 5.632ZM2.736 4.704H4.528C4.976 4.704 5.31733 4.608 5.552 4.416C5.79733 4.21333 5.92 3.92 5.92 3.536C5.92 3.152 5.79733 2.85866 5.552 2.656C5.31733 2.45333 4.976 2.352 4.528 2.352H2.736V4.704ZM4.752 9.184C5.21066 9.184 5.56266 9.08266 5.808 8.88C6.064 8.66666 6.192 8.36266 6.192 7.968C6.192 7.57333 6.05866 7.264 5.792 7.04C5.536 6.816 5.17866 6.704 4.72 6.704H2.736V9.184H4.752ZM13.2349 0.159998V6.88C13.2349 7.552 13.4002 8.06933 13.7309 8.432C14.0615 8.79466 14.5469 8.976 15.1869 8.976C15.8269 8.976 16.3175 8.79466 16.6589 8.432C17.0002 8.06933 17.1709 7.552 17.1709 6.88V0.159998H19.9069V6.864C19.9069 7.86666 19.6935 8.71466 19.2669 9.408C18.8402 10.1013 18.2642 10.624 17.5389 10.976C16.8242 11.328 16.0242 11.504 15.1389 11.504C14.2535 11.504 13.4589 11.3333 12.7549 10.992C12.0615 10.64 11.5122 10.1173 11.1069 9.424C10.7015 8.72 10.4989 7.86666 10.4989 6.864V0.159998H13.2349ZM31.4601 0.159998L27.5721 7.68V11.392H24.8361V7.68L20.9481 0.159998H24.0521L26.2281 4.864L28.3881 0.159998H31.4601ZM46.0011 11.392H43.2651L38.6891 4.464V11.392H35.9531V0.159998H38.6891L43.2651 7.12V0.159998H46.0011V11.392ZM53.2964 11.504C52.2404 11.504 51.2697 11.2587 50.3844 10.768C49.5097 10.2773 48.811 9.59466 48.2884 8.72C47.7764 7.83466 47.5204 6.84266 47.5204 5.744C47.5204 4.64533 47.7764 3.65866 48.2884 2.784C48.811 1.90933 49.5097 1.22666 50.3844 0.735998C51.2697 0.245331 52.2404 -1.90735e-06 53.2964 -1.90735e-06C54.3524 -1.90735e-06 55.3177 0.245331 56.1924 0.735998C57.0777 1.22666 57.771 1.90933 58.2724 2.784C58.7844 3.65866 59.0404 4.64533 59.0404 5.744C59.0404 6.84266 58.7844 7.83466 58.2724 8.72C57.7604 9.59466 57.067 10.2773 56.1924 10.768C55.3177 11.2587 54.3524 11.504 53.2964 11.504ZM53.2964 9.008C54.1924 9.008 54.907 8.70933 55.4404 8.112C55.9844 7.51466 56.2564 6.72533 56.2564 5.744C56.2564 4.752 55.9844 3.96266 55.4404 3.376C54.907 2.77866 54.1924 2.48 53.2964 2.48C52.3897 2.48 51.6644 2.77333 51.1204 3.36C50.587 3.94666 50.3204 4.74133 50.3204 5.744C50.3204 6.736 50.587 7.53066 51.1204 8.128C51.6644 8.71466 52.3897 9.008 53.2964 9.008ZM76.0185 0.159998L73.0905 11.392H69.7785L67.9865 4L66.1305 11.392H62.8185L59.9705 0.159998H62.8985L64.5145 8.336L66.5145 0.159998H69.5225L71.4425 8.336L73.0745 0.159998H76.0185Z" fill="white"/>
</svg>
