<svg width="393" height="108" viewBox="0 0 393 108" fill="none" xmlns="http://www.w3.org/2000/svg">
<path d="M13.676 5.14801C17.524 5.14801 20.8867 5.91067 23.764 7.43601C26.6413 8.96134 28.86 11.1107 30.42 13.884C32.0147 16.6227 32.812 19.7947 32.812 23.4C32.812 26.9707 32.0147 30.1427 30.42 32.916C28.86 35.6893 26.624 37.8387 23.712 39.364C20.8347 40.8893 17.4893 41.652 13.676 41.652H1.11759e-06V5.14801H13.676ZM13.104 33.956C16.4667 33.956 19.084 33.0373 20.956 31.2C22.828 29.3627 23.764 26.7627 23.764 23.4C23.764 20.0373 22.828 17.42 20.956 15.548C19.084 13.676 16.4667 12.74 13.104 12.74H8.892V33.956H13.104ZM42.2533 9.62001C40.6933 9.62001 39.4106 9.16934 38.4053 8.26801C37.4346 7.33201 36.9493 6.18801 36.9493 4.83601C36.9493 3.44934 37.4346 2.30534 38.4053 1.40401C39.4106 0.468005 40.6933 5.00679e-06 42.2533 5.00679e-06C43.7786 5.00679e-06 45.0266 0.468005 45.9973 1.40401C47.0026 2.30534 47.5053 3.44934 47.5053 4.83601C47.5053 6.18801 47.0026 7.33201 45.9973 8.26801C45.0266 9.16934 43.7786 9.62001 42.2533 9.62001ZM46.6733 12.636V41.652H37.7813V12.636H46.6733ZM64.9212 42.068C62.3905 42.068 60.1372 41.6347 58.1612 40.768C56.1852 39.9013 54.6252 38.7227 53.4812 37.232C52.3372 35.7067 51.6959 34.008 51.5572 32.136H60.3452C60.4492 33.1413 60.9172 33.956 61.7492 34.58C62.5812 35.204 63.6039 35.516 64.8172 35.516C65.9265 35.516 66.7759 35.308 67.3652 34.892C67.9892 34.4413 68.3012 33.8693 68.3012 33.176C68.3012 32.344 67.8679 31.7373 67.0012 31.356C66.1345 30.94 64.7305 30.4893 62.7892 30.004C60.7092 29.5187 58.9759 29.016 57.5892 28.496C56.2025 27.9413 55.0065 27.092 54.0012 25.948C52.9959 24.7693 52.4932 23.192 52.4932 21.216C52.4932 19.552 52.9439 18.044 53.8452 16.692C54.7812 15.3053 56.1332 14.2133 57.9012 13.416C59.7039 12.6187 61.8359 12.22 64.2972 12.22C67.9372 12.22 70.7972 13.1213 72.8772 14.924C74.9919 16.7267 76.2052 19.1187 76.5172 22.1H68.3012C68.1625 21.0947 67.7119 20.2973 66.9492 19.708C66.2212 19.1187 65.2505 18.824 64.0372 18.824C62.9972 18.824 62.1999 19.032 61.6452 19.448C61.0905 19.8293 60.8132 20.3667 60.8132 21.06C60.8132 21.892 61.2465 22.516 62.1132 22.932C63.0145 23.348 64.4012 23.764 66.2732 24.18C68.4225 24.7347 70.1732 25.2893 71.5252 25.844C72.8772 26.364 74.0559 27.2307 75.0612 28.444C76.1012 29.6227 76.6385 31.2173 76.6732 33.228C76.6732 34.9267 76.1879 36.452 75.2172 37.804C74.2812 39.1213 72.9119 40.1613 71.1092 40.924C69.3412 41.6867 67.2785 42.068 64.9212 42.068ZM80.3453 27.144C80.3453 24.128 80.9519 21.4933 82.1653 19.24C83.4133 16.9867 85.1293 15.2533 87.3133 14.04C89.5319 12.8267 92.0626 12.22 94.9053 12.22C98.5453 12.22 101.579 13.1733 104.005 15.08C106.467 16.9867 108.079 19.6733 108.841 23.14H99.3773C98.58 20.9213 97.0373 19.812 94.7493 19.812C93.1199 19.812 91.8199 20.4533 90.8493 21.736C89.8786 22.984 89.3933 24.7867 89.3933 27.144C89.3933 29.5013 89.8786 31.3213 90.8493 32.604C91.8199 33.852 93.1199 34.476 94.7493 34.476C97.0373 34.476 98.58 33.3667 99.3773 31.148H108.841C108.079 34.5453 106.467 37.2147 104.005 39.156C101.544 41.0973 98.5106 42.068 94.9053 42.068C92.0626 42.068 89.5319 41.4613 87.3133 40.248C85.1293 39.0347 83.4133 37.3013 82.1653 35.048C80.9519 32.7947 80.3453 30.16 80.3453 27.144ZM126.806 42.068C123.963 42.068 121.398 41.4613 119.11 40.248C116.856 39.0347 115.071 37.3013 113.754 35.048C112.471 32.7947 111.83 30.16 111.83 27.144C111.83 24.1627 112.488 21.5453 113.806 19.292C115.123 17.004 116.926 15.2533 119.214 14.04C121.502 12.8267 124.067 12.22 126.91 12.22C129.752 12.22 132.318 12.8267 134.606 14.04C136.894 15.2533 138.696 17.004 140.014 19.292C141.331 21.5453 141.99 24.1627 141.99 27.144C141.99 30.1253 141.314 32.76 139.962 35.048C138.644 37.3013 136.824 39.0347 134.502 40.248C132.214 41.4613 129.648 42.068 126.806 42.068ZM126.806 34.372C128.504 34.372 129.943 33.748 131.122 32.5C132.335 31.252 132.942 29.4667 132.942 27.144C132.942 24.8213 132.352 23.036 131.174 21.788C130.03 20.54 128.608 19.916 126.91 19.916C125.176 19.916 123.738 20.54 122.594 21.788C121.45 23.0013 120.878 24.7867 120.878 27.144C120.878 29.4667 121.432 31.252 122.542 32.5C123.686 33.748 125.107 34.372 126.806 34.372ZM159.759 33.332L166.051 12.636H175.515L165.219 41.652H154.247L143.951 12.636H153.467L159.759 33.332ZM206.61 26.676C206.61 27.508 206.558 28.3747 206.454 29.276H186.33C186.468 31.0787 187.04 32.4653 188.046 33.436C189.086 34.372 190.351 34.84 191.842 34.84C194.06 34.84 195.603 33.904 196.47 32.032H205.934C205.448 33.9387 204.564 35.6547 203.282 37.18C202.034 38.7053 200.456 39.9013 198.55 40.768C196.643 41.6347 194.511 42.068 192.154 42.068C189.311 42.068 186.78 41.4613 184.562 40.248C182.343 39.0347 180.61 37.3013 179.362 35.048C178.114 32.7947 177.49 30.16 177.49 27.144C177.49 24.128 178.096 21.4933 179.31 19.24C180.558 16.9867 182.291 15.2533 184.51 14.04C186.728 12.8267 189.276 12.22 192.154 12.22C194.962 12.22 197.458 12.8093 199.642 13.988C201.826 15.1667 203.524 16.848 204.738 19.032C205.986 21.216 206.61 23.764 206.61 26.676ZM197.51 24.336C197.51 22.8107 196.99 21.5973 195.95 20.696C194.91 19.7947 193.61 19.344 192.05 19.344C190.559 19.344 189.294 19.7773 188.254 20.644C187.248 21.5107 186.624 22.7413 186.382 24.336H197.51ZM220.193 17.472C221.233 15.8773 222.533 14.6293 224.093 13.728C225.653 12.792 227.386 12.324 229.293 12.324V21.736H226.849C224.63 21.736 222.966 22.2213 221.857 23.192C220.747 24.128 220.193 25.792 220.193 28.184V41.652H211.301V12.636H220.193V17.472ZM261.827 42.016C258.395 42.016 255.24 41.2187 252.363 39.624C249.52 38.0293 247.249 35.8107 245.551 32.968C243.887 30.0907 243.055 26.8667 243.055 23.296C243.055 19.7253 243.887 16.5187 245.551 13.676C247.249 10.8333 249.52 8.61467 252.363 7.02001C255.24 5.42534 258.395 4.62801 261.827 4.62801C265.259 4.62801 268.396 5.42534 271.239 7.02001C274.116 8.61467 276.369 10.8333 277.999 13.676C279.663 16.5187 280.495 19.7253 280.495 23.296C280.495 26.8667 279.663 30.0907 277.999 32.968C276.335 35.8107 274.081 38.0293 271.239 39.624C268.396 41.2187 265.259 42.016 261.827 42.016ZM261.827 33.904C264.739 33.904 267.061 32.9333 268.795 30.992C270.563 29.0507 271.447 26.4853 271.447 23.296C271.447 20.072 270.563 17.5067 268.795 15.6C267.061 13.6587 264.739 12.688 261.827 12.688C258.88 12.688 256.523 13.6413 254.755 15.548C253.021 17.4547 252.155 20.0373 252.155 23.296C252.155 26.52 253.021 29.1027 254.755 31.044C256.523 32.9507 258.88 33.904 261.827 33.904ZM314.093 12.636V41.652H305.201V37.7C304.3 38.9827 303.069 40.0227 301.509 40.82C299.984 41.5827 298.285 41.964 296.413 41.964C294.195 41.964 292.236 41.4787 290.537 40.508C288.839 39.5027 287.521 38.064 286.585 36.192C285.649 34.32 285.181 32.1187 285.181 29.588V12.636H294.021V28.392C294.021 30.3333 294.524 31.8413 295.529 32.916C296.535 33.9907 297.887 34.528 299.585 34.528C301.319 34.528 302.688 33.9907 303.693 32.916C304.699 31.8413 305.201 30.3333 305.201 28.392V12.636H314.093ZM329.372 17.472C330.412 15.8773 331.712 14.6293 333.272 13.728C334.832 12.792 336.566 12.324 338.472 12.324V21.736H336.028C333.81 21.736 332.146 22.2213 331.036 23.192C329.927 24.128 329.372 25.792 329.372 28.184V41.652H320.48V12.636H329.372V17.472ZM32.656 106.652H23.764L8.892 84.136V106.652H1.11759e-06V70.148H8.892L23.764 92.768V70.148H32.656V106.652ZM66.4536 91.676C66.4536 92.508 66.4016 93.3747 66.2976 94.276H46.1736C46.3122 96.0787 46.8842 97.4653 47.8896 98.436C48.9296 99.372 50.1949 99.84 51.6856 99.84C53.9042 99.84 55.4469 98.904 56.3136 97.032H65.7776C65.2922 98.9387 64.4082 100.655 63.1256 102.18C61.8776 103.705 60.3002 104.901 58.3936 105.768C56.4869 106.635 54.3549 107.068 51.9976 107.068C49.1549 107.068 46.6242 106.461 44.4056 105.248C42.1869 104.035 40.4536 102.301 39.2056 100.048C37.9576 97.7947 37.3336 95.16 37.3336 92.144C37.3336 89.128 37.9402 86.4933 39.1536 84.24C40.4016 81.9867 42.1349 80.2533 44.3536 79.04C46.5722 77.8267 49.1202 77.22 51.9976 77.22C54.8056 77.22 57.3016 77.8093 59.4856 78.988C61.6696 80.1667 63.3682 81.848 64.5816 84.032C65.8296 86.216 66.4536 88.764 66.4536 91.676ZM57.3536 89.336C57.3536 87.8107 56.8336 86.5973 55.7936 85.696C54.7536 84.7947 53.4536 84.344 51.8936 84.344C50.4029 84.344 49.1376 84.7773 48.0976 85.644C47.0922 86.5107 46.4682 87.7413 46.2256 89.336H57.3536ZM112.797 77.636L104.945 106.652H95.1165L90.5405 87.828L85.8085 106.652H76.0325L68.1285 77.636H77.0205L81.1285 98.384L86.0165 77.636H95.4285L100.369 98.28L104.425 77.636H112.797ZM125.699 88.348C125.699 84.7427 126.479 81.536 128.039 78.728C129.599 75.8853 131.766 73.684 134.539 72.124C137.347 70.5293 140.519 69.732 144.055 69.732C148.388 69.732 152.098 70.876 155.183 73.164C158.268 75.452 160.331 78.572 161.371 82.524H151.595C150.867 80.9987 149.827 79.8373 148.475 79.04C147.158 78.2427 145.65 77.844 143.951 77.844C141.212 77.844 138.994 78.7973 137.295 80.704C135.596 82.6107 134.747 85.1587 134.747 88.348C134.747 91.5373 135.596 94.0853 137.295 95.992C138.994 97.8987 141.212 98.852 143.951 98.852C145.65 98.852 147.158 98.4533 148.475 97.656C149.827 96.8587 150.867 95.6973 151.595 94.172H161.371C160.331 98.124 158.268 101.244 155.183 103.532C152.098 105.785 148.388 106.912 144.055 106.912C140.519 106.912 137.347 106.132 134.539 104.572C131.766 102.977 129.599 100.776 128.039 97.968C126.479 95.16 125.699 91.9533 125.699 88.348ZM180.024 107.068C177.182 107.068 174.616 106.461 172.328 105.248C170.075 104.035 168.29 102.301 166.972 100.048C165.69 97.7947 165.048 95.16 165.048 92.144C165.048 89.1627 165.707 86.5453 167.024 84.292C168.342 82.004 170.144 80.2533 172.432 79.04C174.72 77.8267 177.286 77.22 180.128 77.22C182.971 77.22 185.536 77.8267 187.824 79.04C190.112 80.2533 191.915 82.004 193.232 84.292C194.55 86.5453 195.208 89.1627 195.208 92.144C195.208 95.1253 194.532 97.76 193.18 100.048C191.863 102.301 190.043 104.035 187.72 105.248C185.432 106.461 182.867 107.068 180.024 107.068ZM180.024 99.372C181.723 99.372 183.162 98.748 184.34 97.5C185.554 96.252 186.16 94.4667 186.16 92.144C186.16 89.8213 185.571 88.036 184.392 86.788C183.248 85.54 181.827 84.916 180.128 84.916C178.395 84.916 176.956 85.54 175.812 86.788C174.668 88.0013 174.096 89.7867 174.096 92.144C174.096 94.4667 174.651 96.252 175.76 97.5C176.904 98.748 178.326 99.372 180.024 99.372ZM208.818 68.172V106.652H199.926V68.172H208.818ZM224.154 68.172V106.652H215.262V68.172H224.154ZM257.95 91.676C257.95 92.508 257.898 93.3747 257.794 94.276H237.67C237.808 96.0787 238.38 97.4653 239.386 98.436C240.426 99.372 241.691 99.84 243.182 99.84C245.4 99.84 246.943 98.904 247.81 97.032H257.274C256.788 98.9387 255.904 100.655 254.622 102.18C253.374 103.705 251.796 104.901 249.89 105.768C247.983 106.635 245.851 107.068 243.494 107.068C240.651 107.068 238.12 106.461 235.902 105.248C233.683 104.035 231.95 102.301 230.702 100.048C229.454 97.7947 228.83 95.16 228.83 92.144C228.83 89.128 229.436 86.4933 230.65 84.24C231.898 81.9867 233.631 80.2533 235.85 79.04C238.068 77.8267 240.616 77.22 243.494 77.22C246.302 77.22 248.798 77.8093 250.982 78.988C253.166 80.1667 254.864 81.848 256.078 84.032C257.326 86.216 257.95 88.764 257.95 91.676ZM248.85 89.336C248.85 87.8107 248.33 86.5973 247.29 85.696C246.25 84.7947 244.95 84.344 243.39 84.344C241.899 84.344 240.634 84.7773 239.594 85.644C238.588 86.5107 237.964 87.7413 237.722 89.336H248.85ZM260.873 92.144C260.873 89.128 261.479 86.4933 262.693 84.24C263.941 81.9867 265.657 80.2533 267.841 79.04C270.059 77.8267 272.59 77.22 275.433 77.22C279.073 77.22 282.106 78.1733 284.533 80.08C286.994 81.9867 288.606 84.6733 289.369 88.14H279.905C279.107 85.9213 277.565 84.812 275.277 84.812C273.647 84.812 272.347 85.4533 271.377 86.736C270.406 87.984 269.921 89.7867 269.921 92.144C269.921 94.5013 270.406 96.3213 271.377 97.604C272.347 98.852 273.647 99.476 275.277 99.476C277.565 99.476 279.107 98.3667 279.905 96.148H289.369C288.606 99.5453 286.994 102.215 284.533 104.156C282.071 106.097 279.038 107.068 275.433 107.068C272.59 107.068 270.059 106.461 267.841 105.248C265.657 104.035 263.941 102.301 262.693 100.048C261.479 97.7947 260.873 95.16 260.873 92.144ZM310.297 99.112V106.652H305.773C302.549 106.652 300.036 105.872 298.233 104.312C296.43 102.717 295.529 100.135 295.529 96.564V85.02H291.993V77.636H295.529V70.564H304.421V77.636H310.245V85.02H304.421V96.668C304.421 97.5347 304.629 98.1587 305.045 98.54C305.461 98.9213 306.154 99.112 307.125 99.112H310.297ZM319.722 74.62C318.162 74.62 316.879 74.1693 315.874 73.268C314.903 72.332 314.418 71.188 314.418 69.836C314.418 68.4493 314.903 67.3053 315.874 66.404C316.879 65.468 318.162 65 319.722 65C321.247 65 322.495 65.468 323.466 66.404C324.471 67.3053 324.974 68.4493 324.974 69.836C324.974 71.188 324.471 72.332 323.466 73.268C322.495 74.1693 321.247 74.62 319.722 74.62ZM324.142 77.636V106.652H315.25V77.636H324.142ZM343.794 107.068C340.951 107.068 338.386 106.461 336.098 105.248C333.845 104.035 332.059 102.301 330.742 100.048C329.459 97.7947 328.818 95.16 328.818 92.144C328.818 89.1627 329.477 86.5453 330.794 84.292C332.111 82.004 333.914 80.2533 336.202 79.04C338.49 77.8267 341.055 77.22 343.898 77.22C346.741 77.22 349.306 77.8267 351.594 79.04C353.882 80.2533 355.685 82.004 357.002 84.292C358.319 86.5453 358.978 89.1627 358.978 92.144C358.978 95.1253 358.302 97.76 356.95 100.048C355.633 102.301 353.813 104.035 351.49 105.248C349.202 106.461 346.637 107.068 343.794 107.068ZM343.794 99.372C345.493 99.372 346.931 98.748 348.11 97.5C349.323 96.252 349.93 94.4667 349.93 92.144C349.93 89.8213 349.341 88.036 348.162 86.788C347.018 85.54 345.597 84.916 343.898 84.916C342.165 84.916 340.726 85.54 339.582 86.788C338.438 88.0013 337.866 89.7867 337.866 92.144C337.866 94.4667 338.421 96.252 339.53 97.5C340.674 98.748 342.095 99.372 343.794 99.372ZM381.375 77.324C384.773 77.324 387.477 78.4333 389.487 80.652C391.533 82.836 392.555 85.852 392.555 89.7V106.652H383.715V90.896C383.715 88.9547 383.213 87.4467 382.207 86.372C381.202 85.2973 379.85 84.76 378.151 84.76C376.453 84.76 375.101 85.2973 374.095 86.372C373.09 87.4467 372.587 88.9547 372.587 90.896V106.652H363.695V77.636H372.587V81.484C373.489 80.2013 374.702 79.196 376.227 78.468C377.753 77.7053 379.469 77.324 381.375 77.324Z" fill="#B88E2F"/>
</svg>
