<svg width="121" height="13" viewBox="0 0 121 13" fill="none" xmlns="http://www.w3.org/2000/svg">
<path d="M9.552 12.544H7.312L2.24 4.88001V12.544H-3.8147e-06V1.36001H2.24L7.312 9.04001V1.36001H9.552V12.544ZM23.0056 7.92001C23.0056 8.24001 22.9843 8.52801 22.9416 8.78401H16.4616C16.515 9.42401 16.739 9.92534 17.1336 10.288C17.5283 10.6507 18.0136 10.832 18.5896 10.832C19.4216 10.832 20.0136 10.4747 20.3656 9.76001H22.7816C22.5256 10.6133 22.035 11.3173 21.3096 11.872C20.5843 12.416 19.6936 12.688 18.6376 12.688C17.7843 12.688 17.0163 12.5013 16.3336 12.128C15.6616 11.744 15.1336 11.2053 14.7496 10.512C14.3763 9.81867 14.1896 9.01867 14.1896 8.11201C14.1896 7.19467 14.3763 6.38934 14.7496 5.69601C15.123 5.00267 15.6456 4.46934 16.3176 4.09601C16.9896 3.72267 17.763 3.53601 18.6376 3.53601C19.4803 3.53601 20.2323 3.71734 20.8936 4.08001C21.5656 4.44267 22.083 4.96001 22.4456 5.63201C22.819 6.29334 23.0056 7.05601 23.0056 7.92001ZM20.6856 7.28001C20.675 6.70401 20.467 6.24534 20.0616 5.90401C19.6563 5.55201 19.1603 5.37601 18.5736 5.37601C18.019 5.37601 17.5496 5.54667 17.1656 5.88801C16.7923 6.21867 16.563 6.68267 16.4776 7.28001H20.6856ZM39.9286 3.68001L37.3366 12.544H34.9206L33.3046 6.35201L31.6886 12.544H29.2566L26.6486 3.68001H28.9206L30.4886 10.432L32.1846 3.68001H34.5526L36.2166 10.416L37.7846 3.68001H39.9286ZM57.8011 10.416H53.3531L52.6171 12.544H50.2651L54.2811 1.36001H56.8891L60.9051 12.544H58.5371L57.8011 10.416ZM57.1931 8.62401L55.5771 3.95201L53.9611 8.62401H57.1931ZM67.6462 5.05601C67.9342 4.58667 68.3076 4.21867 68.7662 3.95201C69.2356 3.68534 69.7689 3.55201 70.3662 3.55201V5.90401H69.7742C69.0702 5.90401 68.5369 6.06934 68.1742 6.40001C67.8222 6.73067 67.6462 7.30667 67.6462 8.12801V12.544H65.4062V3.68001H67.6462V5.05601ZM77.115 5.05601C77.403 4.58667 77.7763 4.21867 78.235 3.95201C78.7043 3.68534 79.2377 3.55201 79.835 3.55201V5.90401H79.243C78.539 5.90401 78.0057 6.06934 77.643 6.40001C77.291 6.73067 77.115 7.30667 77.115 8.12801V12.544H74.875V3.68001H77.115V5.05601ZM85.4797 2.62401C85.0851 2.62401 84.7544 2.50134 84.4877 2.25601C84.2317 2.00001 84.1037 1.68534 84.1037 1.31201C84.1037 0.938672 84.2317 0.629339 84.4877 0.384006C84.7544 0.128006 85.0851 5.72205e-06 85.4797 5.72205e-06C85.8744 5.72205e-06 86.1997 0.128006 86.4557 0.384006C86.7224 0.629339 86.8557 0.938672 86.8557 1.31201C86.8557 1.68534 86.7224 2.00001 86.4557 2.25601C86.1997 2.50134 85.8744 2.62401 85.4797 2.62401ZM86.5837 3.68001V12.544H84.3437V3.68001H86.5837ZM95.4929 10.48L97.7329 3.68001H100.117L96.8369 12.544H94.1169L90.8529 3.68001H93.2529L95.4929 10.48ZM103.799 8.08001C103.799 7.18401 103.975 6.38934 104.327 5.69601C104.69 5.00267 105.175 4.46934 105.783 4.09601C106.402 3.72267 107.09 3.53601 107.847 3.53601C108.508 3.53601 109.084 3.66934 109.575 3.93601C110.076 4.20267 110.476 4.53867 110.775 4.94401V3.68001H113.031V12.544H110.775V11.248C110.487 11.664 110.087 12.0107 109.575 12.288C109.074 12.5547 108.492 12.688 107.831 12.688C107.084 12.688 106.402 12.496 105.783 12.112C105.175 11.728 104.69 11.1893 104.327 10.496C103.975 9.79201 103.799 8.98667 103.799 8.08001ZM110.775 8.11201C110.775 7.56801 110.668 7.10401 110.455 6.72001C110.242 6.32534 109.954 6.02667 109.591 5.82401C109.228 5.61067 108.839 5.50401 108.423 5.50401C108.007 5.50401 107.623 5.60534 107.271 5.80801C106.919 6.01067 106.631 6.30934 106.407 6.70401C106.194 7.08801 106.087 7.54667 106.087 8.08001C106.087 8.61334 106.194 9.08267 106.407 9.48801C106.631 9.88267 106.919 10.1867 107.271 10.4C107.634 10.6133 108.018 10.72 108.423 10.72C108.839 10.72 109.228 10.6187 109.591 10.416C109.954 10.2027 110.242 9.90401 110.455 9.52001C110.668 9.12534 110.775 8.65601 110.775 8.11201ZM120.459 0.704006V12.544H118.219V0.704006H120.459Z" fill="#333333"/>
</svg>
