<svg width="266" height="30" viewBox="0 0 266 30" fill="none" xmlns="http://www.w3.org/2000/svg">
<path d="M14.4401 29.88C11.8001 29.88 9.37339 29.2666 7.16005 28.04C4.97339 26.8133 3.22672 25.1066 1.92005 22.92C0.640054 20.7066 5.37038e-05 18.2266 5.37038e-05 15.48C5.37038e-05 12.7333 0.640054 10.2666 1.92005 8.07997C3.22672 5.89331 4.97339 4.18664 7.16005 2.95998C9.37339 1.73331 11.8001 1.11998 14.4401 1.11998C17.0801 1.11998 19.4934 1.73331 21.6801 2.95998C23.8934 4.18664 25.6267 5.89331 26.8801 8.07997C28.1601 10.2666 28.8001 12.7333 28.8001 15.48C28.8001 18.2266 28.1601 20.7066 26.8801 22.92C25.6001 25.1066 23.8667 26.8133 21.6801 28.04C19.4934 29.2666 17.0801 29.88 14.4401 29.88ZM14.4401 23.64C16.6801 23.64 18.4667 22.8933 19.8001 21.4C21.1601 19.9066 21.8401 17.9333 21.8401 15.48C21.8401 13 21.1601 11.0266 19.8001 9.55997C18.4667 8.06664 16.6801 7.31997 14.4401 7.31997C12.1734 7.31997 10.3601 8.05331 9.00005 9.51997C7.66672 10.9866 7.00005 12.9733 7.00005 15.48C7.00005 17.96 7.66672 19.9466 9.00005 21.44C10.3601 22.9066 12.1734 23.64 14.4401 23.64ZM54.6454 7.27997V29.6H47.8054V26.56C47.112 27.5466 46.1654 28.3466 44.9654 28.96C43.792 29.5466 42.4854 29.84 41.0454 29.84C39.3387 29.84 37.832 29.4666 36.5254 28.72C35.2187 27.9466 34.2054 26.84 33.4854 25.4C32.7654 23.96 32.4054 22.2666 32.4054 20.32V7.27997H39.2054V19.4C39.2054 20.8933 39.592 22.0533 40.3654 22.88C41.1387 23.7066 42.1787 24.12 43.4854 24.12C44.8187 24.12 45.872 23.7066 46.6454 22.88C47.4187 22.0533 47.8054 20.8933 47.8054 19.4V7.27997H54.6454ZM66.3985 11C67.1985 9.77331 68.1985 8.81331 69.3985 8.11998C70.5985 7.39998 71.9318 7.03998 73.3985 7.03998V14.28H71.5185C69.8118 14.28 68.5318 14.6533 67.6785 15.4C66.8252 16.12 66.3985 17.4 66.3985 19.24V29.6H59.5585V7.27997H66.3985V11ZM106.544 10.56C106.544 12.1866 106.171 13.68 105.424 15.04C104.678 16.3733 103.531 17.4533 101.984 18.28C100.438 19.1066 98.5178 19.52 96.2244 19.52H91.9844V29.6H85.1444V1.51997H96.2244C98.4644 1.51997 100.358 1.90664 101.904 2.67997C103.451 3.45331 104.611 4.51997 105.384 5.87997C106.158 7.23997 106.544 8.79997 106.544 10.56ZM95.7044 14.08C97.0111 14.08 97.9844 13.7733 98.6244 13.16C99.2644 12.5466 99.5844 11.68 99.5844 10.56C99.5844 9.43998 99.2644 8.57331 98.6244 7.95998C97.9844 7.34664 97.0111 7.03998 95.7044 7.03998H91.9844V14.08H95.7044ZM116.945 11C117.745 9.77331 118.745 8.81331 119.945 8.11998C121.145 7.39998 122.479 7.03998 123.945 7.03998V14.28H122.065C120.359 14.28 119.079 14.6533 118.225 15.4C117.372 16.12 116.945 17.4 116.945 19.24V29.6H110.105V7.27997H116.945V11ZM137.375 29.92C135.188 29.92 133.215 29.4533 131.455 28.52C129.721 27.5866 128.348 26.2533 127.335 24.52C126.348 22.7866 125.855 20.76 125.855 18.44C125.855 16.1466 126.361 14.1333 127.375 12.4C128.388 10.64 129.775 9.29331 131.535 8.35997C133.295 7.42664 135.268 6.95997 137.455 6.95997C139.641 6.95997 141.615 7.42664 143.375 8.35997C145.135 9.29331 146.521 10.64 147.535 12.4C148.548 14.1333 149.055 16.1466 149.055 18.44C149.055 20.7333 148.535 22.76 147.495 24.52C146.481 26.2533 145.081 27.5866 143.295 28.52C141.535 29.4533 139.561 29.92 137.375 29.92ZM137.375 24C138.681 24 139.788 23.52 140.695 22.56C141.628 21.6 142.095 20.2266 142.095 18.44C142.095 16.6533 141.641 15.28 140.735 14.32C139.855 13.36 138.761 12.88 137.455 12.88C136.121 12.88 135.015 13.36 134.135 14.32C133.255 15.2533 132.815 16.6266 132.815 18.44C132.815 20.2266 133.241 21.6 134.095 22.56C134.975 23.52 136.068 24 137.375 24ZM151.323 18.4C151.323 16.1066 151.75 14.0933 152.603 12.36C153.483 10.6266 154.67 9.29331 156.163 8.35997C157.657 7.42664 159.323 6.95997 161.163 6.95997C162.63 6.95997 163.963 7.26664 165.163 7.87997C166.39 8.49331 167.35 9.31997 168.043 10.36V-2.47955e-05H174.883V29.6H168.043V26.4C167.403 27.4666 166.483 28.32 165.283 28.96C164.11 29.6 162.737 29.92 161.163 29.92C159.323 29.92 157.657 29.4533 156.163 28.52C154.67 27.56 153.483 26.2133 152.603 24.48C151.75 22.72 151.323 20.6933 151.323 18.4ZM168.043 18.44C168.043 16.7333 167.563 15.3866 166.603 14.4C165.67 13.4133 164.523 12.92 163.163 12.92C161.803 12.92 160.643 13.4133 159.683 14.4C158.75 15.36 158.283 16.6933 158.283 18.4C158.283 20.1066 158.75 21.4666 159.683 22.48C160.643 23.4666 161.803 23.96 163.163 23.96C164.523 23.96 165.67 23.4666 166.603 22.48C167.563 21.4933 168.043 20.1466 168.043 18.44ZM201.872 7.27997V29.6H195.032V26.56C194.339 27.5466 193.392 28.3466 192.192 28.96C191.019 29.5466 189.712 29.84 188.272 29.84C186.565 29.84 185.059 29.4666 183.752 28.72C182.445 27.9466 181.432 26.84 180.712 25.4C179.992 23.96 179.632 22.2666 179.632 20.32V7.27997H186.432V19.4C186.432 20.8933 186.819 22.0533 187.592 22.88C188.365 23.7066 189.405 24.12 190.712 24.12C192.045 24.12 193.099 23.7066 193.872 22.88C194.645 22.0533 195.032 20.8933 195.032 19.4V7.27997H201.872ZM205.425 18.44C205.425 16.12 205.892 14.0933 206.825 12.36C207.785 10.6266 209.105 9.29331 210.785 8.35997C212.492 7.42664 214.438 6.95997 216.625 6.95997C219.425 6.95997 221.758 7.69331 223.625 9.15997C225.518 10.6266 226.758 12.6933 227.345 15.36H220.065C219.452 13.6533 218.265 12.8 216.505 12.8C215.252 12.8 214.252 13.2933 213.505 14.28C212.758 15.24 212.385 16.6266 212.385 18.44C212.385 20.2533 212.758 21.6533 213.505 22.64C214.252 23.6 215.252 24.08 216.505 24.08C218.265 24.08 219.452 23.2266 220.065 21.52H227.345C226.758 24.1333 225.518 26.1866 223.625 27.68C221.732 29.1733 219.398 29.92 216.625 29.92C214.438 29.92 212.492 29.4533 210.785 28.52C209.105 27.5866 207.785 26.2533 206.825 24.52C205.892 22.7866 205.425 20.76 205.425 18.44ZM243.444 23.8V29.6H239.964C237.484 29.6 235.55 29 234.164 27.8C232.777 26.5733 232.084 24.5866 232.084 21.84V12.96H229.364V7.27997H232.084V1.83998H238.924V7.27997H243.404V12.96H238.924V21.92C238.924 22.5866 239.084 23.0666 239.404 23.36C239.724 23.6533 240.257 23.8 241.004 23.8H243.444ZM256.334 29.92C254.387 29.92 252.654 29.5866 251.134 28.92C249.614 28.2533 248.414 27.3466 247.534 26.2C246.654 25.0266 246.16 23.72 246.054 22.28H252.814C252.894 23.0533 253.254 23.68 253.894 24.16C254.534 24.64 255.32 24.88 256.254 24.88C257.107 24.88 257.76 24.72 258.214 24.4C258.694 24.0533 258.934 23.6133 258.934 23.08C258.934 22.44 258.6 21.9733 257.934 21.68C257.267 21.36 256.187 21.0133 254.694 20.64C253.094 20.2666 251.76 19.88 250.694 19.48C249.627 19.0533 248.707 18.4 247.934 17.52C247.16 16.6133 246.774 15.4 246.774 13.88C246.774 12.6 247.12 11.44 247.814 10.4C248.534 9.33331 249.574 8.49331 250.934 7.87997C252.32 7.26664 253.96 6.95997 255.854 6.95997C258.654 6.95997 260.854 7.65331 262.454 9.03998C264.08 10.4266 265.014 12.2666 265.254 14.56H258.934C258.827 13.7866 258.48 13.1733 257.894 12.72C257.334 12.2666 256.587 12.04 255.654 12.04C254.854 12.04 254.24 12.2 253.814 12.52C253.387 12.8133 253.174 13.2266 253.174 13.76C253.174 14.4 253.507 14.88 254.174 15.2C254.867 15.52 255.934 15.84 257.374 16.16C259.027 16.5866 260.374 17.0133 261.414 17.44C262.454 17.84 263.36 18.5066 264.134 19.44C264.934 20.3466 265.347 21.5733 265.374 23.12C265.374 24.4266 265 25.6 264.254 26.64C263.534 27.6533 262.48 28.4533 261.094 29.04C259.734 29.6266 258.147 29.92 256.334 29.92Z" fill="#3A3A3A"/>
</svg>
