<svg width="249" height="30" viewBox="0 0 249 30" fill="none" xmlns="http://www.w3.org/2000/svg">
<path d="M8.58 22L5.5 16.56H4.18V22H1.38V8.04H6.62C7.7 8.04 8.62 8.23333 9.38 8.62C10.14 8.99333 10.7067 9.50667 11.08 10.16C11.4667 10.8 11.66 11.52 11.66 12.32C11.66 13.24 11.3933 14.0733 10.86 14.82C10.3267 15.5533 9.53333 16.06 8.48 16.34L11.82 22H8.58ZM4.18 14.46H6.52C7.28 14.46 7.84667 14.28 8.22 13.92C8.59333 13.5467 8.78 13.0333 8.78 12.38C8.78 11.74 8.59333 11.2467 8.22 10.9C7.84667 10.54 7.28 10.36 6.52 10.36H4.18V14.46ZM16.9925 12.52C17.3525 12.0133 17.8458 11.5933 18.4725 11.26C19.1125 10.9133 19.8392 10.74 20.6525 10.74C21.5992 10.74 22.4525 10.9733 23.2125 11.44C23.9858 11.9067 24.5925 12.5733 25.0325 13.44C25.4858 14.2933 25.7125 15.2867 25.7125 16.42C25.7125 17.5533 25.4858 18.56 25.0325 19.44C24.5925 20.3067 23.9858 20.98 23.2125 21.46C22.4525 21.94 21.5992 22.18 20.6525 22.18C19.8392 22.18 19.1192 22.0133 18.4925 21.68C17.8792 21.3467 17.3792 20.9267 16.9925 20.42V27.28H14.1925V10.92H16.9925V12.52ZM22.8525 16.42C22.8525 15.7533 22.7125 15.18 22.4325 14.7C22.1658 14.2067 21.8058 13.8333 21.3525 13.58C20.9125 13.3267 20.4325 13.2 19.9125 13.2C19.4058 13.2 18.9258 13.3333 18.4725 13.6C18.0325 13.8533 17.6725 14.2267 17.3925 14.72C17.1258 15.2133 16.9925 15.7933 16.9925 16.46C16.9925 17.1267 17.1258 17.7067 17.3925 18.2C17.6725 18.6933 18.0325 19.0733 18.4725 19.34C18.9258 19.5933 19.4058 19.72 19.9125 19.72C20.4325 19.72 20.9125 19.5867 21.3525 19.32C21.8058 19.0533 22.1658 18.6733 22.4325 18.18C22.7125 17.6867 22.8525 17.1 22.8525 16.42ZM33.0728 18.84C34.3528 17.7733 35.3728 16.8867 36.1328 16.18C36.8928 15.46 37.5261 14.7133 38.0328 13.94C38.5395 13.1667 38.7928 12.4067 38.7928 11.66C38.7928 10.98 38.6328 10.4467 38.3128 10.06C37.9928 9.67333 37.4995 9.48 36.8328 9.48C36.1661 9.48 35.6528 9.70667 35.2928 10.16C34.9328 10.6 34.7461 11.2067 34.7328 11.98H32.0128C32.0661 10.38 32.5395 9.16667 33.4328 8.34C34.3395 7.51333 35.4861 7.1 36.8728 7.1C38.3928 7.1 39.5595 7.50667 40.3728 8.32C41.1861 9.12 41.5928 10.18 41.5928 11.5C41.5928 12.54 41.3128 13.5333 40.7528 14.48C40.1928 15.4267 39.5528 16.2533 38.8328 16.96C38.1128 17.6533 37.1728 18.4933 36.0128 19.48H41.9128V21.8H32.0328V19.72L33.0728 18.84ZM45.2372 22.14C44.7305 22.14 44.3105 21.9867 43.9772 21.68C43.6572 21.36 43.4972 20.9667 43.4972 20.5C43.4972 20.0333 43.6572 19.6467 43.9772 19.34C44.3105 19.02 44.7305 18.86 45.2372 18.86C45.7305 18.86 46.1372 19.02 46.4572 19.34C46.7772 19.6467 46.9372 20.0333 46.9372 20.5C46.9372 20.9667 46.7772 21.36 46.4572 21.68C46.1372 21.9867 45.7305 22.14 45.2372 22.14ZM58.6725 9.84H52.1925V13.26C52.4725 12.9133 52.8725 12.6333 53.3925 12.42C53.9125 12.1933 54.4658 12.08 55.0525 12.08C56.1192 12.08 56.9925 12.3133 57.6725 12.78C58.3525 13.2467 58.8458 13.8467 59.1525 14.58C59.4592 15.3 59.6125 16.0733 59.6125 16.9C59.6125 18.4333 59.1725 19.6667 58.2925 20.6C57.4258 21.5333 56.1858 22 54.5725 22C53.0525 22 51.8392 21.62 50.9325 20.86C50.0258 20.1 49.5125 19.1067 49.3925 17.88H52.1125C52.2325 18.4133 52.4992 18.84 52.9125 19.16C53.3392 19.48 53.8792 19.64 54.5325 19.64C55.3192 19.64 55.9125 19.3933 56.3125 18.9C56.7125 18.4067 56.9125 17.7533 56.9125 16.94C56.9125 16.1133 56.7058 15.4867 56.2925 15.06C55.8925 14.62 55.2992 14.4 54.5125 14.4C53.9525 14.4 53.4858 14.54 53.1125 14.82C52.7392 15.1 52.4725 15.4733 52.3125 15.94H49.6325V7.38H58.6725V9.84ZM61.7436 14.52C61.7436 12.2133 62.1569 10.4067 62.9836 9.1C63.8236 7.79333 65.2103 7.14 67.1436 7.14C69.0769 7.14 70.4569 7.79333 71.2836 9.1C72.1236 10.4067 72.5436 12.2133 72.5436 14.52C72.5436 16.84 72.1236 18.66 71.2836 19.98C70.4569 21.3 69.0769 21.96 67.1436 21.96C65.2103 21.96 63.8236 21.3 62.9836 19.98C62.1569 18.66 61.7436 16.84 61.7436 14.52ZM69.7836 14.52C69.7836 13.5333 69.7169 12.7067 69.5836 12.04C69.4636 11.36 69.2103 10.8067 68.8236 10.38C68.4503 9.95333 67.8903 9.74 67.1436 9.74C66.3969 9.74 65.8303 9.95333 65.4436 10.38C65.0703 10.8067 64.8169 11.36 64.6836 12.04C64.5636 12.7067 64.5036 13.5333 64.5036 14.52C64.5036 15.5333 64.5636 16.3867 64.6836 17.08C64.8036 17.76 65.0569 18.3133 65.4436 18.74C65.8303 19.1533 66.3969 19.36 67.1436 19.36C67.8903 19.36 68.4569 19.1533 68.8436 18.74C69.2303 18.3133 69.4836 17.76 69.6036 17.08C69.7236 16.3867 69.7836 15.5333 69.7836 14.52ZM74.6733 14.52C74.6733 12.2133 75.0866 10.4067 75.9133 9.1C76.7533 7.79333 78.1399 7.14 80.0733 7.14C82.0066 7.14 83.3866 7.79333 84.2133 9.1C85.0533 10.4067 85.4733 12.2133 85.4733 14.52C85.4733 16.84 85.0533 18.66 84.2133 19.98C83.3866 21.3 82.0066 21.96 80.0733 21.96C78.1399 21.96 76.7533 21.3 75.9133 19.98C75.0866 18.66 74.6733 16.84 74.6733 14.52ZM82.7133 14.52C82.7133 13.5333 82.6466 12.7067 82.5133 12.04C82.3933 11.36 82.1399 10.8067 81.7533 10.38C81.3799 9.95333 80.8199 9.74 80.0733 9.74C79.3266 9.74 78.7599 9.95333 78.3733 10.38C77.9999 10.8067 77.7466 11.36 77.6133 12.04C77.4933 12.7067 77.4333 13.5333 77.4333 14.52C77.4333 15.5333 77.4933 16.3867 77.6133 17.08C77.7333 17.76 77.9866 18.3133 78.3733 18.74C78.7599 19.1533 79.3266 19.36 80.0733 19.36C80.8199 19.36 81.3866 19.1533 81.7733 18.74C82.1599 18.3133 82.4133 17.76 82.5333 17.08C82.6533 16.3867 82.7133 15.5333 82.7133 14.52ZM89.163 22.14C88.6563 22.14 88.2363 21.9867 87.903 21.68C87.583 21.36 87.423 20.9667 87.423 20.5C87.423 20.0333 87.583 19.6467 87.903 19.34C88.2363 19.02 88.6563 18.86 89.163 18.86C89.6563 18.86 90.063 19.02 90.383 19.34C90.703 19.6467 90.863 20.0333 90.863 20.5C90.863 20.9667 90.703 21.36 90.383 21.68C90.063 21.9867 89.6563 22.14 89.163 22.14ZM92.7983 14.52C92.7983 12.2133 93.2116 10.4067 94.0383 9.1C94.8783 7.79333 96.2649 7.14 98.1983 7.14C100.132 7.14 101.512 7.79333 102.338 9.1C103.178 10.4067 103.598 12.2133 103.598 14.52C103.598 16.84 103.178 18.66 102.338 19.98C101.512 21.3 100.132 21.96 98.1983 21.96C96.2649 21.96 94.8783 21.3 94.0383 19.98C93.2116 18.66 92.7983 16.84 92.7983 14.52ZM100.838 14.52C100.838 13.5333 100.772 12.7067 100.638 12.04C100.518 11.36 100.265 10.8067 99.8783 10.38C99.5049 9.95333 98.9449 9.74 98.1983 9.74C97.4516 9.74 96.8849 9.95333 96.4983 10.38C96.1249 10.8067 95.8716 11.36 95.7383 12.04C95.6183 12.7067 95.5583 13.5333 95.5583 14.52C95.5583 15.5333 95.6183 16.3867 95.7383 17.08C95.8583 17.76 96.1116 18.3133 96.4983 18.74C96.8849 19.1533 97.4516 19.36 98.1983 19.36C98.9449 19.36 99.5116 19.1533 99.8983 18.74C100.285 18.3133 100.538 17.76 100.658 17.08C100.778 16.3867 100.838 15.5333 100.838 14.52ZM105.728 14.52C105.728 12.2133 106.141 10.4067 106.968 9.1C107.808 7.79333 109.195 7.14 111.128 7.14C113.061 7.14 114.441 7.79333 115.268 9.1C116.108 10.4067 116.528 12.2133 116.528 14.52C116.528 16.84 116.108 18.66 115.268 19.98C114.441 21.3 113.061 21.96 111.128 21.96C109.195 21.96 107.808 21.3 106.968 19.98C106.141 18.66 105.728 16.84 105.728 14.52ZM113.768 14.52C113.768 13.5333 113.701 12.7067 113.568 12.04C113.448 11.36 113.195 10.8067 112.808 10.38C112.435 9.95333 111.875 9.74 111.128 9.74C110.381 9.74 109.815 9.95333 109.428 10.38C109.055 10.8067 108.801 11.36 108.668 12.04C108.548 12.7067 108.488 13.5333 108.488 14.52C108.488 15.5333 108.548 16.3867 108.668 17.08C108.788 17.76 109.041 18.3133 109.428 18.74C109.815 19.1533 110.381 19.36 111.128 19.36C111.875 19.36 112.441 19.1533 112.828 18.74C113.215 18.3133 113.468 17.76 113.588 17.08C113.708 16.3867 113.768 15.5333 113.768 14.52ZM118.658 14.52C118.658 12.2133 119.071 10.4067 119.898 9.1C120.738 7.79333 122.124 7.14 124.058 7.14C125.991 7.14 127.371 7.79333 128.198 9.1C129.038 10.4067 129.458 12.2133 129.458 14.52C129.458 16.84 129.038 18.66 128.198 19.98C127.371 21.3 125.991 21.96 124.058 21.96C122.124 21.96 120.738 21.3 119.898 19.98C119.071 18.66 118.658 16.84 118.658 14.52ZM126.698 14.52C126.698 13.5333 126.631 12.7067 126.498 12.04C126.378 11.36 126.124 10.8067 125.738 10.38C125.364 9.95333 124.804 9.74 124.058 9.74C123.311 9.74 122.744 9.95333 122.358 10.38C121.984 10.8067 121.731 11.36 121.598 12.04C121.478 12.7067 121.418 13.5333 121.418 14.52C121.418 15.5333 121.478 16.3867 121.598 17.08C121.718 17.76 121.971 18.3133 122.358 18.74C122.744 19.1533 123.311 19.36 124.058 19.36C124.804 19.36 125.371 19.1533 125.758 18.74C126.144 18.3133 126.398 17.76 126.518 17.08C126.638 16.3867 126.698 15.5333 126.698 14.52Z" fill="#3A3A3A"/>
<path d="M154.104 21L151.448 16.44H149.688V21H148.232V9.848H151.832C152.675 9.848 153.384 9.992 153.96 10.28C154.547 10.568 154.984 10.9573 155.272 11.448C155.56 11.9387 155.704 12.4987 155.704 13.128C155.704 13.896 155.48 14.5733 155.032 15.16C154.595 15.7467 153.933 16.136 153.048 16.328L155.848 21H154.104ZM149.688 15.272H151.832C152.621 15.272 153.213 15.08 153.608 14.696C154.003 14.3013 154.2 13.7787 154.2 13.128C154.2 12.4667 154.003 11.9547 153.608 11.592C153.224 11.2293 152.632 11.048 151.832 11.048H149.688V15.272ZM159.422 13.848C159.71 13.3467 160.137 12.9307 160.702 12.6C161.278 12.2587 161.945 12.088 162.702 12.088C163.481 12.088 164.185 12.2747 164.814 12.648C165.454 13.0213 165.956 13.5493 166.318 14.232C166.681 14.904 166.862 15.688 166.862 16.584C166.862 17.4693 166.681 18.2587 166.318 18.952C165.956 19.6453 165.454 20.184 164.814 20.568C164.185 20.952 163.481 21.144 162.702 21.144C161.956 21.144 161.294 20.9787 160.718 20.648C160.153 20.3067 159.721 19.8853 159.422 19.384V25.16H157.966V12.232H159.422V13.848ZM165.374 16.584C165.374 15.9227 165.241 15.3467 164.974 14.856C164.708 14.3653 164.345 13.992 163.886 13.736C163.438 13.48 162.942 13.352 162.398 13.352C161.865 13.352 161.369 13.4853 160.91 13.752C160.462 14.008 160.1 14.3867 159.822 14.888C159.556 15.3787 159.422 15.9493 159.422 16.6C159.422 17.2613 159.556 17.8427 159.822 18.344C160.1 18.8347 160.462 19.2133 160.91 19.48C161.369 19.736 161.865 19.864 162.398 19.864C162.942 19.864 163.438 19.736 163.886 19.48C164.345 19.2133 164.708 18.8347 164.974 18.344C165.241 17.8427 165.374 17.256 165.374 16.584ZM172.773 12.344C172.847 11.3627 173.226 10.5947 173.909 10.04C174.591 9.48533 175.477 9.208 176.565 9.208C177.29 9.208 177.914 9.34133 178.437 9.608C178.97 9.864 179.37 10.216 179.637 10.664C179.914 11.112 180.053 11.6187 180.053 12.184C180.053 12.8453 179.861 13.416 179.477 13.896C179.103 14.376 178.613 14.6853 178.005 14.824V14.904C178.698 15.0747 179.247 15.4107 179.653 15.912C180.058 16.4133 180.26 17.0693 180.26 17.88C180.26 18.488 180.122 19.0373 179.845 19.528C179.567 20.008 179.151 20.3867 178.597 20.664C178.042 20.9413 177.375 21.08 176.597 21.08C175.466 21.08 174.538 20.7867 173.812 20.2C173.087 19.6027 172.682 18.76 172.597 17.672H174.005C174.079 18.312 174.341 18.8347 174.789 19.24C175.237 19.6453 175.834 19.848 176.581 19.848C177.327 19.848 177.893 19.656 178.277 19.272C178.671 18.8773 178.869 18.3707 178.869 17.752C178.869 16.952 178.602 16.376 178.069 16.024C177.535 15.672 176.73 15.496 175.653 15.496H175.285V14.28H175.669C176.65 14.2693 177.391 14.1093 177.893 13.8C178.394 13.48 178.645 12.9893 178.645 12.328C178.645 11.7627 178.458 11.3093 178.085 10.968C177.722 10.6267 177.199 10.456 176.516 10.456C175.855 10.456 175.322 10.6267 174.917 10.968C174.511 11.3093 174.271 11.768 174.197 12.344H172.773ZM182.93 21.096C182.653 21.096 182.418 21 182.226 20.808C182.034 20.616 181.938 20.3813 181.938 20.104C181.938 19.8267 182.034 19.592 182.226 19.4C182.418 19.208 182.653 19.112 182.93 19.112C183.197 19.112 183.421 19.208 183.602 19.4C183.794 19.592 183.89 19.8267 183.89 20.104C183.89 20.3813 183.794 20.616 183.602 20.808C183.421 21 183.197 21.096 182.93 21.096ZM192.962 10.696H187.346V14.344C187.591 14.0027 187.954 13.7253 188.434 13.512C188.914 13.288 189.431 13.176 189.986 13.176C190.871 13.176 191.591 13.3627 192.146 13.736C192.7 14.0987 193.095 14.5733 193.33 15.16C193.575 15.736 193.698 16.3493 193.698 17C193.698 17.768 193.554 18.456 193.266 19.064C192.978 19.672 192.535 20.152 191.938 20.504C191.351 20.856 190.62 21.032 189.746 21.032C188.626 21.032 187.719 20.744 187.026 20.168C186.332 19.592 185.911 18.824 185.762 17.864H187.186C187.324 18.472 187.618 18.9467 188.066 19.288C188.514 19.6293 189.079 19.8 189.762 19.8C190.604 19.8 191.239 19.5493 191.666 19.048C192.092 18.536 192.306 17.864 192.306 17.032C192.306 16.2 192.092 15.56 191.666 15.112C191.239 14.6533 190.61 14.424 189.778 14.424C189.212 14.424 188.716 14.5627 188.29 14.84C187.874 15.1067 187.57 15.4747 187.378 15.944H186.002V9.416H192.962V10.696ZM195.633 15.096C195.633 13.2613 195.931 11.832 196.529 10.808C197.126 9.77333 198.171 9.256 199.665 9.256C201.147 9.256 202.187 9.77333 202.785 10.808C203.382 11.832 203.681 13.2613 203.681 15.096C203.681 16.9627 203.382 18.4133 202.785 19.448C202.187 20.4827 201.147 21 199.665 21C198.171 21 197.126 20.4827 196.529 19.448C195.931 18.4133 195.633 16.9627 195.633 15.096ZM202.241 15.096C202.241 14.168 202.177 13.384 202.049 12.744C201.931 12.0933 201.681 11.5707 201.297 11.176C200.923 10.7813 200.379 10.584 199.665 10.584C198.939 10.584 198.385 10.7813 198.001 11.176C197.627 11.5707 197.377 12.0933 197.249 12.744C197.131 13.384 197.073 14.168 197.073 15.096C197.073 16.056 197.131 16.8613 197.249 17.512C197.377 18.1627 197.627 18.6853 198.001 19.08C198.385 19.4747 198.939 19.672 199.665 19.672C200.379 19.672 200.923 19.4747 201.297 19.08C201.681 18.6853 201.931 18.1627 202.049 17.512C202.177 16.8613 202.241 16.056 202.241 15.096ZM205.68 15.096C205.68 13.2613 205.978 11.832 206.576 10.808C207.173 9.77333 208.218 9.256 209.712 9.256C211.194 9.256 212.234 9.77333 212.832 10.808C213.429 11.832 213.727 13.2613 213.727 15.096C213.727 16.9627 213.429 18.4133 212.832 19.448C212.234 20.4827 211.194 21 209.712 21C208.218 21 207.173 20.4827 206.576 19.448C205.978 18.4133 205.68 16.9627 205.68 15.096ZM212.288 15.096C212.288 14.168 212.224 13.384 212.096 12.744C211.978 12.0933 211.728 11.5707 211.344 11.176C210.97 10.7813 210.426 10.584 209.712 10.584C208.986 10.584 208.432 10.7813 208.048 11.176C207.674 11.5707 207.424 12.0933 207.296 12.744C207.178 13.384 207.12 14.168 207.12 15.096C207.12 16.056 207.178 16.8613 207.296 17.512C207.424 18.1627 207.674 18.6853 208.048 19.08C208.432 19.4747 208.986 19.672 209.712 19.672C210.426 19.672 210.97 19.4747 211.344 19.08C211.728 18.6853 211.978 18.1627 212.096 17.512C212.224 16.8613 212.288 16.056 212.288 15.096ZM216.43 21.096C216.153 21.096 215.918 21 215.726 20.808C215.534 20.616 215.438 20.3813 215.438 20.104C215.438 19.8267 215.534 19.592 215.726 19.4C215.918 19.208 216.153 19.112 216.43 19.112C216.697 19.112 216.921 19.208 217.102 19.4C217.294 19.592 217.39 19.8267 217.39 20.104C217.39 20.3813 217.294 20.616 217.102 20.808C216.921 21 216.697 21.096 216.43 21.096ZM219.086 15.096C219.086 13.2613 219.384 11.832 219.982 10.808C220.579 9.77333 221.624 9.256 223.118 9.256C224.6 9.256 225.64 9.77333 226.238 10.808C226.835 11.832 227.134 13.2613 227.134 15.096C227.134 16.9627 226.835 18.4133 226.238 19.448C225.64 20.4827 224.6 21 223.118 21C221.624 21 220.579 20.4827 219.982 19.448C219.384 18.4133 219.086 16.9627 219.086 15.096ZM225.694 15.096C225.694 14.168 225.63 13.384 225.502 12.744C225.384 12.0933 225.134 11.5707 224.75 11.176C224.376 10.7813 223.832 10.584 223.118 10.584C222.392 10.584 221.838 10.7813 221.454 11.176C221.08 11.5707 220.83 12.0933 220.702 12.744C220.584 13.384 220.526 14.168 220.526 15.096C220.526 16.056 220.584 16.8613 220.702 17.512C220.83 18.1627 221.08 18.6853 221.454 19.08C221.838 19.4747 222.392 19.672 223.118 19.672C223.832 19.672 224.376 19.4747 224.75 19.08C225.134 18.6853 225.384 18.1627 225.502 17.512C225.63 16.8613 225.694 16.056 225.694 15.096ZM229.133 15.096C229.133 13.2613 229.431 11.832 230.029 10.808C230.626 9.77333 231.671 9.256 233.165 9.256C234.647 9.256 235.687 9.77333 236.285 10.808C236.882 11.832 237.181 13.2613 237.181 15.096C237.181 16.9627 236.882 18.4133 236.285 19.448C235.687 20.4827 234.647 21 233.165 21C231.671 21 230.626 20.4827 230.029 19.448C229.431 18.4133 229.133 16.9627 229.133 15.096ZM235.741 15.096C235.741 14.168 235.677 13.384 235.549 12.744C235.431 12.0933 235.181 11.5707 234.797 11.176C234.423 10.7813 233.879 10.584 233.165 10.584C232.439 10.584 231.885 10.7813 231.501 11.176C231.127 11.5707 230.877 12.0933 230.749 12.744C230.631 13.384 230.573 14.168 230.573 15.096C230.573 16.056 230.631 16.8613 230.749 17.512C230.877 18.1627 231.127 18.6853 231.501 19.08C231.885 19.4747 232.439 19.672 233.165 19.672C233.879 19.672 234.423 19.4747 234.797 19.08C235.181 18.6853 235.431 18.1627 235.549 17.512C235.677 16.8613 235.741 16.056 235.741 15.096ZM239.18 15.096C239.18 13.2613 239.478 11.832 240.076 10.808C240.673 9.77333 241.718 9.256 243.212 9.256C244.694 9.256 245.734 9.77333 246.332 10.808C246.929 11.832 247.227 13.2613 247.227 15.096C247.227 16.9627 246.929 18.4133 246.332 19.448C245.734 20.4827 244.694 21 243.212 21C241.718 21 240.673 20.4827 240.076 19.448C239.478 18.4133 239.18 16.9627 239.18 15.096ZM245.788 15.096C245.788 14.168 245.724 13.384 245.596 12.744C245.478 12.0933 245.228 11.5707 244.844 11.176C244.47 10.7813 243.926 10.584 243.212 10.584C242.486 10.584 241.932 10.7813 241.548 11.176C241.174 11.5707 240.924 12.0933 240.796 12.744C240.678 13.384 240.62 14.168 240.62 15.096C240.62 16.056 240.678 16.8613 240.796 17.512C240.924 18.1627 241.174 18.6853 241.548 19.08C241.932 19.4747 242.486 19.672 243.212 19.672C243.926 19.672 244.47 19.4747 244.844 19.08C245.228 18.6853 245.478 18.1627 245.596 17.512C245.724 16.8613 245.788 16.056 245.788 15.096Z" fill="#B0B0B0"/>
<path d="M147 15.752H248.236V16.552H147V15.752Z" fill="#B0B0B0"/>
</svg>
