<svg width="137" height="17" viewBox="0 0 137 17" fill="none" xmlns="http://www.w3.org/2000/svg">
<path d="M3.93602 12.4641C3.18936 12.4641 2.51735 12.3361 1.92002 12.0801C1.32269 11.8134 0.853355 11.4401 0.512022 10.9601C0.170688 10.4801 2.15173e-05 9.92005 2.15173e-05 9.28005H1.95202C1.99469 9.76005 2.18135 10.1547 2.51202 10.4641C2.85335 10.7734 3.32802 10.9281 3.93602 10.9281C4.56535 10.9281 5.05602 10.7787 5.40802 10.4801C5.76002 10.1707 5.93602 9.77605 5.93602 9.29605C5.93602 8.92272 5.82402 8.61872 5.60002 8.38405C5.38669 8.14938 5.11469 7.96805 4.78402 7.84005C4.46402 7.71205 4.01602 7.57338 3.44002 7.42405C2.71469 7.23205 2.12269 7.04005 1.66402 6.84805C1.21602 6.64538 0.832022 6.33605 0.512022 5.92005C0.192022 5.50405 0.0320215 4.94938 0.0320215 4.25605C0.0320215 3.61605 0.192022 3.05605 0.512022 2.57605C0.832022 2.09605 1.28002 1.72805 1.85602 1.47205C2.43202 1.21605 3.09869 1.08805 3.85602 1.08805C4.93336 1.08805 5.81335 1.36005 6.49602 1.90405C7.18936 2.43738 7.57336 3.17338 7.64802 4.11205H5.63202C5.60002 3.70672 5.40802 3.36005 5.05602 3.07205C4.70402 2.78405 4.24002 2.64005 3.66402 2.64005C3.14135 2.64005 2.71469 2.77338 2.38402 3.04005C2.05336 3.30672 1.88802 3.69072 1.88802 4.19205C1.88802 4.53338 1.98936 4.81605 2.19202 5.04005C2.40535 5.25338 2.67202 5.42405 2.99202 5.55205C3.31202 5.68005 3.74935 5.81872 4.30402 5.96805C5.04002 6.17072 5.63736 6.37338 6.09602 6.57605C6.56535 6.77872 6.96002 7.09338 7.28002 7.52005C7.61069 7.93605 7.77602 8.49605 7.77602 9.20005C7.77602 9.76538 7.62136 10.2987 7.31202 10.8001C7.01336 11.3014 6.57069 11.7067 5.98402 12.0161C5.40802 12.3147 4.72536 12.4641 3.93602 12.4641ZM12.0563 5.02405V9.90405C12.0563 10.2347 12.1309 10.4747 12.2803 10.6241C12.4403 10.7627 12.7069 10.8321 13.0803 10.8321H14.2003V12.3521H12.7603C11.9389 12.3521 11.3096 12.1601 10.8723 11.7761C10.4349 11.3921 10.2163 10.7681 10.2163 9.90405V5.02405H9.17627V3.53605H10.2163V1.34405H12.0563V3.53605H14.2003V5.02405H12.0563ZM23.8174 3.53605L18.4094 16.4961H16.5214L18.3134 12.2081L14.8414 3.53605H16.8734L19.3534 10.2561L21.9294 3.53605H23.8174ZM27.0179 0.512051V12.3521H25.1939V0.512051H27.0179ZM30.3406 2.36805C30.01 2.36805 29.7326 2.25605 29.5086 2.03205C29.2846 1.80805 29.1726 1.53072 29.1726 1.20005C29.1726 0.869383 29.2846 0.59205 29.5086 0.368051C29.7326 0.14405 30.01 0.0320501 30.3406 0.0320501C30.6606 0.0320501 30.9326 0.14405 31.1566 0.368051C31.3806 0.59205 31.4926 0.869383 31.4926 1.20005C31.4926 1.53072 31.3806 1.80805 31.1566 2.03205C30.9326 2.25605 30.6606 2.36805 30.3406 2.36805ZM31.2366 3.53605V12.3521H29.4126V3.53605H31.2366ZM36.8314 12.4961C36.1381 12.4961 35.5141 12.3734 34.9594 12.1281C34.4154 11.8721 33.9834 11.5307 33.6634 11.1041C33.3434 10.6667 33.1727 10.1814 33.1514 9.64805H35.0394C35.0714 10.0214 35.2474 10.3361 35.5674 10.5921C35.8981 10.8374 36.3087 10.9601 36.7994 10.9601C37.3114 10.9601 37.7061 10.8641 37.9834 10.6721C38.2714 10.4694 38.4154 10.2134 38.4154 9.90405C38.4154 9.57338 38.2554 9.32805 37.9354 9.16805C37.6261 9.00805 37.1301 8.83205 36.4474 8.64005C35.7861 8.45872 35.2474 8.28272 34.8314 8.11205C34.4154 7.94138 34.0527 7.68005 33.7434 7.32805C33.4447 6.97605 33.2954 6.51205 33.2954 5.93605C33.2954 5.46672 33.4341 5.04005 33.7114 4.65605C33.9887 4.26138 34.3834 3.95205 34.8954 3.72805C35.4181 3.50405 36.0154 3.39205 36.6874 3.39205C37.6901 3.39205 38.4954 3.64805 39.1034 4.16005C39.7221 4.66138 40.0527 5.34938 40.0954 6.22405H38.2714C38.2394 5.82938 38.0794 5.51472 37.7914 5.28005C37.5034 5.04538 37.1141 4.92805 36.6234 4.92805C36.1434 4.92805 35.7754 5.01872 35.5194 5.20005C35.2634 5.38138 35.1354 5.62138 35.1354 5.92005C35.1354 6.15472 35.2207 6.35205 35.3914 6.51205C35.5621 6.67205 35.7701 6.80005 36.0154 6.89605C36.2607 6.98138 36.6234 7.09338 37.1034 7.23205C37.7434 7.40272 38.2661 7.57872 38.6714 7.76005C39.0874 7.93072 39.4447 8.18672 39.7434 8.52805C40.0421 8.86938 40.1967 9.32272 40.2074 9.88805C40.2074 10.3894 40.0687 10.8374 39.7914 11.2321C39.5141 11.6267 39.1194 11.9361 38.6074 12.1601C38.1061 12.3841 37.5141 12.4961 36.8314 12.4961ZM46.7383 3.39205C47.4103 3.39205 48.0076 3.53605 48.5303 3.82405C49.0636 4.11205 49.4796 4.53872 49.7783 5.10405C50.0876 5.66938 50.2423 6.35205 50.2423 7.15205V12.3521H48.4343V7.42405C48.4343 6.63472 48.2369 6.03205 47.8423 5.61605C47.4476 5.18938 46.9089 4.97605 46.2263 4.97605C45.5436 4.97605 44.9996 5.18938 44.5943 5.61605C44.1996 6.03205 44.0023 6.63472 44.0023 7.42405V12.3521H42.1783V0.512051H44.0023V4.56005C44.3116 4.18672 44.7009 3.89872 45.1703 3.69605C45.6503 3.49338 46.1729 3.39205 46.7383 3.39205ZM56.1171 7.93605C56.1171 7.02938 56.2985 6.23472 56.6611 5.55205C57.0345 4.85872 57.5465 4.32538 58.1971 3.95205C58.8478 3.57872 59.5945 3.39205 60.4371 3.39205C61.5038 3.39205 62.3838 3.64805 63.0771 4.16005C63.7811 4.66138 64.2558 5.38138 64.5011 6.32005H62.5331C62.3731 5.88272 62.1171 5.54138 61.7651 5.29605C61.4131 5.05072 60.9705 4.92805 60.4371 4.92805C59.6905 4.92805 59.0931 5.19472 58.6451 5.72805C58.2078 6.25072 57.9891 6.98672 57.9891 7.93605C57.9891 8.88538 58.2078 9.62672 58.6451 10.1601C59.0931 10.6934 59.6905 10.9601 60.4371 10.9601C61.4931 10.9601 62.1918 10.4961 62.5331 9.56805H64.5011C64.2451 10.4641 63.7651 11.1787 63.0611 11.7121C62.3571 12.2347 61.4825 12.4961 60.4371 12.4961C59.5945 12.4961 58.8478 12.3094 58.1971 11.9361C57.5465 11.5521 57.0345 11.0187 56.6611 10.3361C56.2985 9.64272 56.1171 8.84272 56.1171 7.93605ZM65.7109 7.90405C65.7109 7.01872 65.8922 6.23472 66.2549 5.55205C66.6282 4.86938 67.1296 4.34138 67.7589 3.96805C68.3989 3.58405 69.1029 3.39205 69.8709 3.39205C70.5642 3.39205 71.1669 3.53072 71.6789 3.80805C72.2016 4.07472 72.6176 4.41072 72.9269 4.81605V3.53605H74.7669V12.3521H72.9269V11.0401C72.6176 11.4561 72.1962 11.8027 71.6629 12.0801C71.1296 12.3574 70.5216 12.4961 69.8389 12.4961C69.0816 12.4961 68.3882 12.3041 67.7589 11.9201C67.1296 11.5254 66.6282 10.9814 66.2549 10.2881C65.8922 9.58405 65.7109 8.78938 65.7109 7.90405ZM72.9269 7.93605C72.9269 7.32805 72.7989 6.80005 72.5429 6.35205C72.2976 5.90405 71.9722 5.56272 71.5669 5.32805C71.1616 5.09338 70.7242 4.97605 70.2549 4.97605C69.7856 4.97605 69.3482 5.09338 68.9429 5.32805C68.5376 5.55205 68.2069 5.88805 67.9509 6.33605C67.7056 6.77338 67.5829 7.29605 67.5829 7.90405C67.5829 8.51205 67.7056 9.04538 67.9509 9.50405C68.2069 9.96272 68.5376 10.3147 68.9429 10.5601C69.3589 10.7947 69.7962 10.9121 70.2549 10.9121C70.7242 10.9121 71.1616 10.7947 71.5669 10.5601C71.9722 10.3254 72.2976 9.98405 72.5429 9.53605C72.7989 9.07738 72.9269 8.54405 72.9269 7.93605ZM80.8586 5.02405H79.2266V12.3521H77.3866V5.02405H76.3466V3.53605H77.3866V2.91205C77.3866 1.89872 77.6533 1.16272 78.1866 0.70405C78.7306 0.234717 79.5786 5.05447e-05 80.7306 5.05447e-05V1.52005C80.176 1.52005 79.7866 1.62672 79.5626 1.84005C79.3386 2.04272 79.2266 2.40005 79.2266 2.91205V3.53605H80.8586V5.02405ZM90.5551 7.72805C90.5551 8.05872 90.5338 8.35738 90.4911 8.62405H83.7551C83.8085 9.32805 84.0698 9.89338 84.5391 10.3201C85.0085 10.7467 85.5845 10.9601 86.2671 10.9601C87.2485 10.9601 87.9418 10.5494 88.3471 9.72805H90.3151C90.0485 10.5387 89.5631 11.2054 88.8591 11.7281C88.1658 12.2401 87.3018 12.4961 86.2671 12.4961C85.4245 12.4961 84.6671 12.3094 83.9951 11.9361C83.3338 11.5521 82.8111 11.0187 82.4271 10.3361C82.0538 9.64272 81.8671 8.84272 81.8671 7.93605C81.8671 7.02938 82.0485 6.23472 82.4111 5.55205C82.7845 4.85872 83.3018 4.32538 83.9631 3.95205C84.6351 3.57872 85.4031 3.39205 86.2671 3.39205C87.0991 3.39205 87.8405 3.57338 88.4911 3.93605C89.1418 4.29872 89.6485 4.81072 90.0111 5.47205C90.3738 6.12272 90.5551 6.87472 90.5551 7.72805ZM88.6511 7.15205C88.6405 6.48005 88.4005 5.94138 87.9311 5.53605C87.4618 5.13072 86.8805 4.92805 86.1871 4.92805C85.5578 4.92805 85.0191 5.13072 84.5711 5.53605C84.1231 5.93072 83.8565 6.46938 83.7711 7.15205H88.6511ZM95.8984 7.93605C95.8984 7.02938 96.0797 6.23472 96.4424 5.55205C96.8157 4.85872 97.3277 4.32538 97.9784 3.95205C98.6291 3.57872 99.3757 3.39205 100.218 3.39205C101.285 3.39205 102.165 3.64805 102.858 4.16005C103.562 4.66138 104.037 5.38138 104.282 6.32005H102.314C102.154 5.88272 101.898 5.54138 101.546 5.29605C101.194 5.05072 100.752 4.92805 100.218 4.92805C99.4717 4.92805 98.8744 5.19472 98.4264 5.72805C97.9891 6.25072 97.7704 6.98672 97.7704 7.93605C97.7704 8.88538 97.9891 9.62672 98.4264 10.1601C98.8744 10.6934 99.4717 10.9601 100.218 10.9601C101.274 10.9601 101.973 10.4961 102.314 9.56805H104.282C104.026 10.4641 103.546 11.1787 102.842 11.7121C102.138 12.2347 101.264 12.4961 100.218 12.4961C99.3757 12.4961 98.6291 12.3094 97.9784 11.9361C97.3277 11.5521 96.8157 11.0187 96.4424 10.3361C96.0797 9.64272 95.8984 8.84272 95.8984 7.93605ZM110.66 3.39205C111.332 3.39205 111.929 3.53605 112.452 3.82405C112.985 4.11205 113.401 4.53872 113.7 5.10405C114.009 5.66938 114.164 6.35205 114.164 7.15205V12.3521H112.356V7.42405C112.356 6.63472 112.159 6.03205 111.764 5.61605C111.369 5.18938 110.831 4.97605 110.148 4.97605C109.465 4.97605 108.921 5.18938 108.516 5.61605C108.121 6.03205 107.924 6.63472 107.924 7.42405V12.3521H106.1V0.512051H107.924V4.56005C108.233 4.18672 108.623 3.89872 109.092 3.69605C109.572 3.49338 110.095 3.39205 110.66 3.39205ZM115.883 7.90405C115.883 7.01872 116.064 6.23472 116.427 5.55205C116.8 4.86938 117.301 4.34138 117.931 3.96805C118.571 3.58405 119.275 3.39205 120.043 3.39205C120.736 3.39205 121.339 3.53072 121.851 3.80805C122.373 4.07472 122.789 4.41072 123.099 4.81605V3.53605H124.939V12.3521H123.099V11.0401C122.789 11.4561 122.368 11.8027 121.835 12.0801C121.301 12.3574 120.693 12.4961 120.011 12.4961C119.253 12.4961 118.56 12.3041 117.931 11.9201C117.301 11.5254 116.8 10.9814 116.427 10.2881C116.064 9.58405 115.883 8.78938 115.883 7.90405ZM123.099 7.93605C123.099 7.32805 122.971 6.80005 122.715 6.35205C122.469 5.90405 122.144 5.56272 121.739 5.32805C121.333 5.09338 120.896 4.97605 120.427 4.97605C119.957 4.97605 119.52 5.09338 119.115 5.32805C118.709 5.55205 118.379 5.88805 118.123 6.33605C117.877 6.77338 117.755 7.29605 117.755 7.90405C117.755 8.51205 117.877 9.04538 118.123 9.50405C118.379 9.96272 118.709 10.3147 119.115 10.5601C119.531 10.7947 119.968 10.9121 120.427 10.9121C120.896 10.9121 121.333 10.7947 121.739 10.5601C122.144 10.3254 122.469 9.98405 122.715 9.53605C122.971 9.07738 123.099 8.54405 123.099 7.93605ZM128.263 2.36805C127.932 2.36805 127.655 2.25605 127.431 2.03205C127.207 1.80805 127.095 1.53072 127.095 1.20005C127.095 0.869383 127.207 0.59205 127.431 0.368051C127.655 0.14405 127.932 0.0320501 128.263 0.0320501C128.583 0.0320501 128.855 0.14405 129.079 0.368051C129.303 0.59205 129.415 0.869383 129.415 1.20005C129.415 1.53072 129.303 1.80805 129.079 2.03205C128.855 2.25605 128.583 2.36805 128.263 2.36805ZM129.159 3.53605V12.3521H127.335V3.53605H129.159ZM133.377 4.81605C133.644 4.36805 133.996 4.02138 134.433 3.77605C134.881 3.52005 135.409 3.39205 136.017 3.39205V5.28005H135.553C134.839 5.28005 134.295 5.46138 133.921 5.82405C133.559 6.18672 133.377 6.81605 133.377 7.71205V12.3521H131.553V3.53605H133.377V4.81605Z" fill="#898989"/>
</svg>
